<svg width="400" height="112" viewBox="0 0 400 112" fill="none" xmlns="http://www.w3.org/2000/svg">
<g clip-path="url(#clip0_240_486)">
<rect width="400" height="112" fill="black"/>
<rect width="400" height="112" fill="url(#paint0_linear_240_486)"/>
<g filter="url(#filter0_f_240_486)">
<ellipse cx="114" cy="46" rx="52" ry="34" fill="white" fill-opacity="0.45"/>
</g>
<path d="M115.558 19.9414C134.124 19.9414 149.175 34.9902 149.175 53.5584C149.175 72.1237 134.124 87.1747 115.558 87.1747C96.9932 87.1747 81.9414 72.1237 81.9414 53.5584C81.9414 34.9902 96.9924 19.9414 115.558 19.9414Z" fill="url(#paint1_linear_240_486)"/>
<path fill-rule="evenodd" clip-rule="evenodd" d="M115.5 21.7657C97.9741 21.7657 83.7696 35.9731 83.7696 53.4983C83.7696 71.0219 97.9741 85.2294 115.5 85.2294C133.027 85.2294 147.23 71.0219 147.23 53.499C147.23 35.9724 133.026 21.7657 115.5 21.7657ZM115.5 17.999C135.105 17.999 151 33.8906 151 53.499C151 73.1044 135.105 88.999 115.5 88.999C95.8946 88.999 80 73.1044 80 53.499C80 33.8906 95.8946 17.999 115.5 17.999Z" fill="#2D2D2D"/>
<path d="M87.0062 33.9658L103.084 39.5308L94.1536 50.5215L78.2192 45.0023L78.0783 44.8736L87.0062 33.9658Z" fill="white"/>
<path d="M90.8519 21.9472L106.929 27.5123L97.9993 38.503L82.0649 32.9837L81.924 32.855L90.8519 21.9472Z" fill="white"/>
<path d="M141.794 50.7697L145.912 52.2031L143.546 55.2614L139.465 53.8398L139.429 53.8053L141.794 50.7697Z" fill="#525502"/>
<path d="M147.309 54.2812L150.828 55.493L148.934 57.7129L145.446 56.5112L145.415 56.4841L147.309 54.2812Z" fill="#353901"/>
<path d="M134.629 47.1666L139.55 48.8786L136.733 52.4993L131.856 50.8013L131.813 50.7603L134.629 47.1666Z" fill="#8B8403"/>
<path d="M126.491 42.9609L132.216 44.9516L128.949 49.1346L123.275 47.1602L123.225 47.1128L126.491 42.9609Z" fill="#A79804"/>
<path d="M116.977 38.0236L123.908 40.4303L119.985 45.3927L113.116 43.0058L113.056 42.9489L116.977 38.0236Z" fill="#C2A905"/>
<path d="M92.3054 25.0327L102.252 28.4814L96.6702 35.4565L86.8125 32.0361L86.7256 31.9555L92.3054 25.0327Z" fill="#F9C406"/>
<path d="M140.146 55.9204L144.265 57.3499L141.94 60.28L137.858 58.8622L137.822 58.8286L140.146 55.9204Z" fill="#542F0E"/>
<path d="M145.999 58.3757L149.517 59.5914L147.581 61.9395L144.095 60.7339L144.064 60.706L145.999 58.3757Z" fill="#39230A"/>
<path d="M132.685 53.2413L137.608 54.9455L134.874 58.3098L129.994 56.6196L129.951 56.5802L132.685 53.2413Z" fill="#8A3D17"/>
<path d="M124.167 50.225L129.894 52.2079L126.709 56.1346L121.033 54.168L120.982 54.1221L124.167 50.225Z" fill="#A6401C"/>
<path d="M114.229 46.608L121.163 49.0069L117.323 53.713L110.451 51.3339L110.39 51.2786L114.229 46.608Z" fill="#C14021"/>
<path d="M88.3749 37.3156L98.3248 40.7526L92.8665 47.3432L83.005 43.9345L82.9175 43.8562L88.3749 37.3156Z" fill="#DF4C42"/>
<path d="M79.1879 58.3994L95.2653 63.9644L86.3352 74.9551L70.4008 69.4358L70.2599 69.3072L79.1879 58.3994Z" fill="white"/>
<path d="M83.1605 45.9844L99.2379 51.5494L90.3079 62.5401L74.3735 57.0208L74.2326 56.8921L83.1605 45.9844Z" fill="white"/>
<path d="M138.498 61.071L142.618 62.4966L140.334 65.2985L136.251 63.8847L136.215 63.8518L138.498 61.071Z" fill="#113A2E"/>
<path d="M144.689 62.4697L148.208 63.6815L146.314 65.9014L142.826 64.6997L142.795 64.6726L144.689 62.4697Z" fill="#0C2721"/>
<path d="M130.783 59.1854L135.705 60.8935L132.93 64.386L128.051 62.6919L128.008 62.6517L130.783 59.1854Z" fill="#174C39"/>
<path d="M121.969 57.0927L127.694 59.0834L124.427 63.2664L118.753 61.292L118.703 61.2446L121.969 57.0927Z" fill="#1D5F42"/>
<path d="M111.609 54.7968L118.539 57.2073L114.576 62.298L107.707 59.9071L107.647 59.8495L111.609 54.7968Z" fill="#22724A"/>
<path d="M84.6132 49.0705L94.5582 52.5231L88.9358 59.6264L79.0793 56.2022L78.9928 56.1207L84.6132 49.0705Z" fill="#2D9754"/>
<path d="M136.849 66.2224L140.969 67.648L138.686 70.4499L134.602 69.036L134.566 69.0031L136.849 66.2224Z" fill="#00186E"/>
<path d="M143.379 66.5639L146.895 67.7835L144.919 70.2598L141.434 69.0503L141.403 69.0217L143.379 66.5639Z" fill="#000B4B"/>
<path d="M128.839 65.2608L133.762 66.9651L131.028 70.3293L126.148 68.6391L126.105 68.5997L128.839 65.2608Z" fill="#0040B5"/>
<path d="M119.644 64.3571L125.373 66.3361L122.229 70.1346L116.551 68.1719L116.501 68.1267L119.644 64.3571Z" fill="#005BD9"/>
<path d="M108.778 63.6456L115.714 66.0367L111.956 70.4865L105.081 68.1151L105.02 68.0613L108.778 63.6456Z" fill="#007BFD"/>
<path d="M80.641 61.4856L90.5909 64.9225L85.1326 71.5131L75.2711 68.1045L75.1836 68.0261L80.641 61.4856Z" fill="#45B8FF"/>
<path d="M105.666 31.4921L114.308 34.4846L109.494 40.4338L100.93 37.4659L100.854 37.3965L105.666 31.4921Z" fill="#DEB705"/>
<path d="M102.243 42.1906L110.886 45.1792L106.114 51.0002L97.548 48.0362L97.4721 47.9675L102.243 42.1906Z" fill="#DA3E27"/>
<path d="M98.9893 52.3598L107.628 55.3601L102.733 61.5656L94.1709 58.59L94.0957 58.519L98.9893 52.3598Z" fill="#288550"/>
<path d="M95.5236 63.1906L104.166 66.1792L99.3939 72.0002L90.8283 69.0362L90.7524 68.9675L95.5236 63.1906Z" fill="#219CFF"/>
<path fill-rule="evenodd" clip-rule="evenodd" d="M103.71 20.0038C107.399 18.7053 111.367 17.999 115.5 17.999C135.106 17.999 151 33.8906 151 53.499C151 73.1044 135.106 88.999 115.5 88.999C103.553 88.999 92.9844 83.0969 86.5503 74.0495L89.1807 71.2273C94.8815 79.6745 104.542 85.2294 115.5 85.2294C133.027 85.2294 147.231 71.0219 147.231 53.499C147.231 35.9724 133.026 21.7657 115.5 21.7657C111.012 21.7657 106.742 22.6974 102.872 24.3779L103.71 20.0038Z" fill="#2D2D2D"/>
<g filter="url(#filter1_d_240_486)">
<path d="M215.252 65H208.127L201.643 56.4688H199.549V65H193.736V41.7344H203.096C204.387 41.7344 205.512 41.8177 206.471 41.9844C207.429 42.1406 208.314 42.474 209.127 42.9844C209.96 43.5156 210.622 44.1927 211.111 45.0156C211.601 45.8281 211.846 46.8646 211.846 48.125C211.846 49.9062 211.445 51.3542 210.643 52.4688C209.84 53.5729 208.768 54.4531 207.424 55.1094L215.252 65ZM205.846 48.8594C205.846 48.276 205.731 47.776 205.502 47.3594C205.283 46.9323 204.913 46.6042 204.393 46.375C204.028 46.2188 203.622 46.1198 203.174 46.0781C202.726 46.0365 202.169 46.0156 201.502 46.0156H199.549V52.2812H201.221C202.033 52.2812 202.721 52.2344 203.283 52.1406C203.856 52.0365 204.34 51.8229 204.736 51.5C205.111 51.2083 205.387 50.8594 205.564 50.4531C205.752 50.0469 205.846 49.5156 205.846 48.8594ZM233.291 65H227.822V63.0625C226.874 63.8542 226.004 64.4583 225.213 64.875C224.421 65.2812 223.478 65.4844 222.384 65.4844C220.645 65.4844 219.285 64.9375 218.306 63.8438C217.338 62.7396 216.853 61.0833 216.853 58.875V47.4531H222.353V56.1562C222.353 57.0625 222.374 57.8021 222.416 58.375C222.468 58.9479 222.582 59.4323 222.759 59.8281C222.926 60.1927 223.181 60.4688 223.525 60.6562C223.879 60.8438 224.369 60.9375 224.994 60.9375C225.379 60.9375 225.832 60.8438 226.353 60.6562C226.884 60.4688 227.374 60.2135 227.822 59.8906V47.4531H233.291V65ZM254.251 65H248.751V56.2969C248.751 55.5885 248.72 54.8854 248.658 54.1875C248.605 53.4792 248.501 52.9583 248.345 52.625C248.158 52.2292 247.887 51.9479 247.533 51.7812C247.178 51.6042 246.704 51.5156 246.111 51.5156C245.663 51.5156 245.21 51.599 244.751 51.7656C244.293 51.9323 243.803 52.1979 243.283 52.5625V65H237.814V47.4531H243.283V49.3906C244.178 48.6302 245.048 48.0365 245.892 47.6094C246.746 47.1823 247.689 46.9688 248.72 46.9688C250.512 46.9688 251.881 47.5365 252.829 48.6719C253.777 49.7969 254.251 51.4323 254.251 53.5781V65ZM265.353 65.3438C263.123 65.3438 261.498 64.8854 260.478 63.9688C259.467 63.0521 258.962 61.5521 258.962 59.4688V51.2656H256.868V47.4531H258.962V42.4375H264.431V47.4531H269.696V51.2656H264.431V57.4844C264.431 58.099 264.436 58.6354 264.446 59.0938C264.457 59.5521 264.54 59.9635 264.696 60.3281C264.842 60.6927 265.097 60.9844 265.462 61.2031C265.837 61.4115 266.379 61.5156 267.087 61.5156C267.379 61.5156 267.759 61.4531 268.228 61.3281C268.707 61.2031 269.04 61.0885 269.228 60.9844H269.696V64.8438C269.103 65 268.472 65.1198 267.806 65.2031C267.139 65.2969 266.321 65.3438 265.353 65.3438ZM277.735 65H272.266V47.4531H277.735V65ZM277.891 44.9531H272.11V40.6875H277.891V44.9531ZM303.211 65V56.2344C303.211 55.3698 303.196 54.6406 303.164 54.0469C303.133 53.4531 303.039 52.9688 302.883 52.5938C302.727 52.2188 302.482 51.9479 302.149 51.7812C301.826 51.6042 301.367 51.5156 300.774 51.5156C300.357 51.5156 299.946 51.6094 299.539 51.7969C299.133 51.974 298.69 52.2292 298.211 52.5625V65H292.711V56.2344C292.711 55.3802 292.69 54.6562 292.649 54.0625C292.617 53.4583 292.524 52.9688 292.367 52.5938C292.211 52.2188 291.966 51.9479 291.633 51.7812C291.31 51.6042 290.857 51.5156 290.274 51.5156C289.826 51.5156 289.388 51.6198 288.961 51.8281C288.534 52.0365 288.117 52.2812 287.711 52.5625V65H282.242V47.4531H287.711V49.3906C288.607 48.6302 289.451 48.0365 290.242 47.6094C291.034 47.1823 291.925 46.9688 292.914 46.9688C293.987 46.9688 294.93 47.224 295.742 47.7344C296.555 48.2448 297.175 49.0052 297.602 50.0156C298.654 49.0365 299.644 48.2865 300.571 47.7656C301.508 47.2344 302.456 46.9688 303.414 46.9688C304.227 46.9688 304.956 47.099 305.602 47.3594C306.248 47.6198 306.795 48.0104 307.242 48.5312C307.732 49.0938 308.097 49.7656 308.336 50.5469C308.586 51.3177 308.711 52.3281 308.711 53.5781V65H303.211ZM322.078 65.4688C318.766 65.4688 316.224 64.6771 314.453 63.0938C312.693 61.5104 311.812 59.2552 311.812 56.3281C311.812 53.4635 312.635 51.1771 314.281 49.4688C315.927 47.7604 318.229 46.9062 321.188 46.9062C323.875 46.9062 325.896 47.6302 327.25 49.0781C328.604 50.526 329.281 52.599 329.281 55.2969V57.2656H317.297C317.349 58.0781 317.521 58.7604 317.812 59.3125C318.104 59.8542 318.49 60.2865 318.969 60.6094C319.438 60.9323 319.984 61.1667 320.609 61.3125C321.234 61.4479 321.917 61.5156 322.656 61.5156C323.292 61.5156 323.917 61.4479 324.531 61.3125C325.146 61.1667 325.708 60.9792 326.219 60.75C326.667 60.5521 327.078 60.3385 327.453 60.1094C327.839 59.8802 328.151 59.6771 328.391 59.5H328.969V64.0156C328.521 64.1927 328.109 64.3594 327.734 64.5156C327.37 64.6615 326.865 64.8125 326.219 64.9688C325.625 65.125 325.01 65.2448 324.375 65.3281C323.75 65.4219 322.984 65.4688 322.078 65.4688ZM323.891 53.9688C323.859 52.8125 323.589 51.9323 323.078 51.3281C322.578 50.724 321.807 50.4219 320.766 50.4219C319.703 50.4219 318.87 50.7396 318.266 51.375C317.672 52.0104 317.344 52.875 317.281 53.9688H323.891ZM163.229 66.1719H153.464V70.5625H162.448V75H153.464V85H147.651V61.7344H163.229V66.1719ZM183.096 76.2344C183.096 79.1198 182.305 81.3958 180.721 83.0625C179.148 84.7188 176.919 85.5469 174.034 85.5469C171.169 85.5469 168.94 84.7188 167.346 83.0625C165.763 81.3958 164.971 79.1198 164.971 76.2344C164.971 73.3177 165.763 71.0365 167.346 69.3906C168.94 67.7344 171.169 66.9062 174.034 66.9062C176.909 66.9062 179.138 67.7396 180.721 69.4062C182.305 71.0625 183.096 73.3385 183.096 76.2344ZM177.487 76.2656C177.487 75.224 177.398 74.3594 177.221 73.6719C177.055 72.974 176.82 72.4167 176.518 72C176.195 71.5625 175.831 71.2604 175.424 71.0938C175.018 70.9167 174.555 70.8281 174.034 70.8281C173.544 70.8281 173.101 70.9062 172.706 71.0625C172.31 71.2083 171.945 71.4948 171.612 71.9219C171.299 72.3281 171.049 72.8854 170.862 73.5938C170.674 74.3021 170.581 75.1927 170.581 76.2656C170.581 77.3385 170.669 78.2083 170.846 78.875C171.023 79.5312 171.252 80.0573 171.534 80.4531C171.825 80.8594 172.19 81.1562 172.627 81.3438C173.065 81.5312 173.549 81.625 174.081 81.625C174.518 81.625 174.961 81.5312 175.409 81.3438C175.867 81.1562 176.232 80.875 176.502 80.5C176.825 80.0521 177.07 79.5156 177.237 78.8906C177.404 78.2552 177.487 77.3802 177.487 76.2656ZM202.619 85H197.151V83.0625C196.203 83.8542 195.333 84.4583 194.541 84.875C193.75 85.2812 192.807 85.4844 191.713 85.4844C189.974 85.4844 188.614 84.9375 187.635 83.8438C186.666 82.7396 186.182 81.0833 186.182 78.875V67.4531H191.682V76.1562C191.682 77.0625 191.703 77.8021 191.744 78.375C191.796 78.9479 191.911 79.4323 192.088 79.8281C192.255 80.1927 192.51 80.4688 192.854 80.6562C193.208 80.8438 193.697 80.9375 194.322 80.9375C194.708 80.9375 195.161 80.8438 195.682 80.6562C196.213 80.4688 196.703 80.2135 197.151 79.8906V67.4531H202.619V85ZM223.58 85H218.08V76.2969C218.08 75.5885 218.049 74.8854 217.986 74.1875C217.934 73.4792 217.83 72.9583 217.674 72.625C217.486 72.2292 217.215 71.9479 216.861 71.7812C216.507 71.6042 216.033 71.5156 215.439 71.5156C214.991 71.5156 214.538 71.599 214.08 71.7656C213.622 71.9323 213.132 72.1979 212.611 72.5625V85H207.142V67.4531H212.611V69.3906C213.507 68.6302 214.377 68.0365 215.221 67.6094C216.075 67.1823 217.017 66.9688 218.049 66.9688C219.84 66.9688 221.21 67.5365 222.158 68.6719C223.106 69.7969 223.58 71.4323 223.58 73.5781V85ZM243.916 85H238.447V83.1719C238.093 83.4635 237.686 83.776 237.228 84.1094C236.78 84.4427 236.384 84.6927 236.041 84.8594C235.603 85.0677 235.171 85.224 234.744 85.3281C234.317 85.4323 233.806 85.4844 233.212 85.4844C231.212 85.4844 229.629 84.6562 228.462 83C227.296 81.3438 226.712 79.1302 226.712 76.3594C226.712 74.8281 226.91 73.5 227.306 72.375C227.702 71.25 228.249 70.2708 228.947 69.4375C229.582 68.6771 230.353 68.0781 231.259 67.6406C232.166 67.1927 233.124 66.9688 234.134 66.9688C235.051 66.9688 235.801 67.0677 236.384 67.2656C236.978 67.4531 237.666 67.75 238.447 68.1562V60.6875H243.916V85ZM238.447 80.1562V71.5469C238.176 71.4115 237.822 71.3021 237.384 71.2188C236.947 71.125 236.572 71.0781 236.259 71.0781C234.947 71.0781 233.957 71.5365 233.291 72.4531C232.634 73.3698 232.306 74.651 232.306 76.2969C232.306 78.026 232.567 79.276 233.087 80.0469C233.619 80.8177 234.473 81.2031 235.65 81.2031C236.129 81.2031 236.614 81.1094 237.103 80.9219C237.593 80.7344 238.041 80.4792 238.447 80.1562ZM258.111 80.4219V76.7656C257.184 76.8594 256.434 76.9427 255.861 77.0156C255.288 77.0781 254.725 77.2083 254.173 77.4062C253.694 77.5729 253.319 77.8281 253.048 78.1719C252.788 78.5052 252.658 78.9531 252.658 79.5156C252.658 80.3385 252.876 80.9062 253.314 81.2188C253.762 81.5208 254.418 81.6719 255.283 81.6719C255.762 81.6719 256.251 81.5625 256.751 81.3438C257.251 81.125 257.704 80.8177 258.111 80.4219ZM258.111 83.1406C257.736 83.4531 257.397 83.7344 257.095 83.9844C256.803 84.2344 256.408 84.4844 255.908 84.7344C255.418 84.974 254.939 85.1562 254.47 85.2812C254.012 85.4062 253.366 85.4688 252.533 85.4688C250.98 85.4688 249.689 84.9479 248.658 83.9062C247.637 82.8646 247.126 81.5521 247.126 79.9688C247.126 78.6667 247.387 77.6146 247.908 76.8125C248.428 76.0104 249.178 75.375 250.158 74.9062C251.147 74.4271 252.329 74.0938 253.704 73.9062C255.079 73.7188 256.559 73.5729 258.142 73.4688V73.375C258.142 72.4062 257.783 71.7396 257.064 71.375C256.355 71 255.288 70.8125 253.861 70.8125C253.215 70.8125 252.46 70.9323 251.595 71.1719C250.73 71.401 249.887 71.6979 249.064 72.0625H248.595V67.8281C249.137 67.6719 250.012 67.4896 251.22 67.2812C252.428 67.0625 253.647 66.9531 254.876 66.9531C257.897 66.9531 260.095 67.4583 261.47 68.4688C262.855 69.4688 263.548 71 263.548 73.0625V85H258.111V83.1406ZM274.634 85.3438C272.405 85.3438 270.78 84.8854 269.759 83.9688C268.748 83.0521 268.243 81.5521 268.243 79.4688V71.2656H266.149V67.4531H268.243V62.4375H273.712V67.4531H278.977V71.2656H273.712V77.4844C273.712 78.099 273.717 78.6354 273.727 79.0938C273.738 79.5521 273.821 79.9635 273.977 80.3281C274.123 80.6927 274.379 80.9844 274.743 81.2031C275.118 81.4115 275.66 81.5156 276.368 81.5156C276.66 81.5156 277.04 81.4531 277.509 81.3281C277.988 81.2031 278.321 81.0885 278.509 80.9844H278.977V84.8438C278.384 85 277.754 85.1198 277.087 85.2031C276.42 85.2969 275.602 85.3438 274.634 85.3438ZM287.016 85H281.548V67.4531H287.016V85ZM287.173 64.9531H281.391V60.6875H287.173V64.9531ZM308.367 76.2344C308.367 79.1198 307.576 81.3958 305.992 83.0625C304.42 84.7188 302.19 85.5469 299.305 85.5469C296.44 85.5469 294.211 84.7188 292.617 83.0625C291.034 81.3958 290.242 79.1198 290.242 76.2344C290.242 73.3177 291.034 71.0365 292.617 69.3906C294.211 67.7344 296.44 66.9062 299.305 66.9062C302.18 66.9062 304.409 67.7396 305.992 69.4062C307.576 71.0625 308.367 73.3385 308.367 76.2344ZM302.758 76.2656C302.758 75.224 302.67 74.3594 302.492 73.6719C302.326 72.974 302.091 72.4167 301.789 72C301.466 71.5625 301.102 71.2604 300.696 71.0938C300.289 70.9167 299.826 70.8281 299.305 70.8281C298.815 70.8281 298.373 70.9062 297.977 71.0625C297.581 71.2083 297.216 71.4948 296.883 71.9219C296.571 72.3281 296.321 72.8854 296.133 73.5938C295.946 74.3021 295.852 75.1927 295.852 76.2656C295.852 77.3385 295.94 78.2083 296.117 78.875C296.295 79.5312 296.524 80.0573 296.805 80.4531C297.097 80.8594 297.461 81.1562 297.899 81.3438C298.336 81.5312 298.821 81.625 299.352 81.625C299.789 81.625 300.232 81.5312 300.68 81.3438C301.138 81.1562 301.503 80.875 301.774 80.5C302.097 80.0521 302.341 79.5156 302.508 78.8906C302.675 78.2552 302.758 77.3802 302.758 76.2656ZM328.031 85H322.531V76.2969C322.531 75.5885 322.5 74.8854 322.438 74.1875C322.385 73.4792 322.281 72.9583 322.125 72.625C321.938 72.2292 321.667 71.9479 321.312 71.7812C320.958 71.6042 320.484 71.5156 319.891 71.5156C319.443 71.5156 318.99 71.599 318.531 71.7656C318.073 71.9323 317.583 72.1979 317.062 72.5625V85H311.594V67.4531H317.062V69.3906C317.958 68.6302 318.828 68.0365 319.672 67.6094C320.526 67.1823 321.469 66.9688 322.5 66.9688C324.292 66.9688 325.661 67.5365 326.609 68.6719C327.557 69.7969 328.031 71.4323 328.031 73.5781V85Z" fill="white"/>
</g>
<line y1="111.5" x2="400" y2="111.5" stroke="#DBDBDB" stroke-opacity="0.69"/>
<line y1="110.5" x2="400" y2="110.5" stroke="#323232" stroke-opacity="0.59"/>
</g>
<defs>
<filter id="filter0_f_240_486" x="-8" y="-58" width="244" height="208" filterUnits="userSpaceOnUse" color-interpolation-filters="sRGB">
<feFlood flood-opacity="0" result="BackgroundImageFix"/>
<feBlend mode="normal" in="SourceGraphic" in2="BackgroundImageFix" result="shape"/>
<feGaussianBlur stdDeviation="35" result="effect1_foregroundBlur_240_486"/>
</filter>
<filter id="filter1_d_240_486" x="-82.3486" y="-189.312" width="631.63" height="494.859" filterUnits="userSpaceOnUse" color-interpolation-filters="sRGB">
<feFlood flood-opacity="0" result="BackgroundImageFix"/>
<feColorMatrix in="SourceAlpha" type="matrix" values="0 0 0 0 0 0 0 0 0 0 0 0 0 0 0 0 0 0 127 0" result="hardAlpha"/>
<feOffset dx="-5" dy="-5"/>
<feGaussianBlur stdDeviation="112.5"/>
<feComposite in2="hardAlpha" operator="out"/>
<feColorMatrix type="matrix" values="0 0 0 0 1 0 0 0 0 1 0 0 0 0 1 0 0 0 1 0"/>
<feBlend mode="normal" in2="BackgroundImageFix" result="effect1_dropShadow_240_486"/>
<feBlend mode="normal" in="SourceGraphic" in2="effect1_dropShadow_240_486" result="shape"/>
</filter>
<linearGradient id="paint0_linear_240_486" x1="182.5" y1="-1.85668e-06" x2="180.5" y2="112" gradientUnits="userSpaceOnUse">
<stop stop-color="#192028"/>
<stop offset="1"/>
</linearGradient>
<linearGradient id="paint1_linear_240_486" x1="98.7654" y1="38.7087" x2="151.75" y2="89.8393" gradientUnits="userSpaceOnUse">
<stop stop-color="white"/>
<stop offset="1" stop-color="#CDCDCD"/>
</linearGradient>
<clipPath id="clip0_240_486">
<rect width="400" height="112" fill="white"/>
</clipPath>
</defs>
</svg>
