<svg width="16" height="16" viewBox="0 0 16 16" fill="none" xmlns="http://www.w3.org/2000/svg">
<rect y="1" width="16" height="14" fill="url(#paint0_linear_348_1280)"/>
<rect x="0.5" y="1.5" width="15" height="13" stroke="black" stroke-opacity="0.43"/>
<rect x="5.5" y="5.5" width="5" height="5" fill="url(#paint1_linear_348_1280)"/>
<rect x="5.5" y="5.5" width="5" height="5" stroke="black"/>
<line x1="6.5" y1="10" x2="6.5" y2="13" stroke="#232323"/>
<line x1="9.5" y1="10" x2="9.5" y2="13" stroke="#232323"/>
<line x1="13" y1="6.5" x2="10" y2="6.5" stroke="#232323"/>
<line x1="13" y1="9.5" x2="10" y2="9.5" stroke="#232323"/>
<line x1="6" y1="6.5" x2="3" y2="6.5" stroke="#232323"/>
<line x1="6" y1="9.5" x2="3" y2="9.5" stroke="#232323"/>
<line x1="9.5" y1="3" x2="9.5" y2="6" stroke="#232323"/>
<line x1="6.5" y1="3" x2="6.5" y2="6" stroke="#232323"/>
<rect x="1" y="1" width="2" height="3" fill="white"/>
<rect x="1" y="12" width="2" height="3" fill="white"/>
<rect x="4" y="1" width="1" height="3" fill="white"/>
<rect x="4" y="12" width="1" height="3" fill="white"/>
<rect x="11" y="1" width="1" height="3" fill="white"/>
<rect x="11" y="12" width="1" height="3" fill="white"/>
<rect x="13" y="1" width="2" height="3" fill="white"/>
<rect x="13" y="12" width="2" height="3" fill="white"/>
<defs>
<linearGradient id="paint0_linear_348_1280" x1="0.999999" y1="2" x2="16" y2="15" gradientUnits="userSpaceOnUse">
<stop stop-color="#6EFF42"/>
<stop offset="1" stop-color="#1F8400"/>
</linearGradient>
<linearGradient id="paint1_linear_348_1280" x1="6.5" y1="6" x2="10" y2="10" gradientUnits="userSpaceOnUse">
<stop stop-color="#E8E8E8"/>
<stop offset="1" stop-color="#7D7D7D"/>
</linearGradient>
</defs>
</svg>
