<svg width="16" height="16" viewBox="0 0 16 16" fill="none" xmlns="http://www.w3.org/2000/svg">
<g clip-path="url(#clip0_324_1050)">
<path d="M8.86996 2.06226C12.1548 2.06226 14.8179 4.72494 14.8179 8.01034C14.8179 11.2952 12.1548 13.9583 8.86996 13.9583C5.58508 13.9583 2.92188 11.2952 2.92188 8.01034C2.92188 4.72494 5.58495 2.06226 8.86996 2.06226Z" fill="url(#paint0_linear_324_1050)"/>
<path fill-rule="evenodd" clip-rule="evenodd" d="M8.85938 2.38521C5.7584 2.38521 3.24511 4.89903 3.24511 7.99987C3.24511 11.1004 5.7584 13.6143 8.85938 13.6143C11.9605 13.6143 14.4736 11.1004 14.4736 8C14.4736 4.8989 11.9603 2.38521 8.85938 2.38521ZM8.85938 1.71875C12.3283 1.71875 15.1406 4.53056 15.1406 8C15.1406 11.4689 12.3283 14.2813 8.85938 14.2813C5.39046 14.2813 2.57812 11.4689 2.57812 8C2.57812 4.53056 5.39046 1.71875 8.85938 1.71875Z" fill="#2D2D2D"/>
<path d="M3.81821 4.5439L6.66289 5.52855L5.08283 7.47321L2.26345 6.49665L2.23853 6.47388L3.81821 4.5439Z" fill="white"/>
<path d="M4.49838 2.41719L7.34306 3.40184L5.76301 5.3465L2.94363 4.36994L2.9187 4.34717L4.49838 2.41719Z" fill="white"/>
<path d="M13.5119 7.51683L14.2404 7.77044L13.8218 8.31157L13.0997 8.06003L13.0934 8.05394L13.5119 7.51683Z" fill="#525502"/>
<path d="M14.4879 8.13839L15.1105 8.35279L14.7753 8.74558L14.1582 8.53295L14.1527 8.52816L14.4879 8.13839Z" fill="#353901"/>
<path d="M12.2443 6.87951L13.1151 7.18243L12.6167 7.82306L11.7537 7.52262L11.7462 7.51538L12.2443 6.87951Z" fill="#8B8403"/>
<path d="M10.8044 6.13527L11.8174 6.48749L11.2393 7.22762L10.2354 6.87828L10.2266 6.86988L10.8044 6.13527Z" fill="#A79804"/>
<path d="M9.12077 5.26178L10.3472 5.68761L9.65315 6.56565L8.43768 6.14332L8.427 6.13326L9.12077 5.26178Z" fill="#C2A905"/>
<path d="M4.75554 2.96312L6.51539 3.57331L5.52784 4.80747L3.78365 4.20229L3.76829 4.18801L4.75554 2.96312Z" fill="#F9C406"/>
<path d="M13.2202 8.42838L13.9489 8.68131L13.5376 9.19975L12.8153 8.9489L12.809 8.94294L13.2202 8.42838Z" fill="#542F0E"/>
<path d="M14.2561 8.86282L14.8785 9.07791L14.536 9.49338L13.9192 9.28006L13.9137 9.27514L14.2561 8.86282Z" fill="#39230A"/>
<path d="M11.9002 7.95433L12.7714 8.25587L12.2876 8.85114L11.4242 8.55207L11.4166 8.5451L11.9002 7.95433Z" fill="#8A3D17"/>
<path d="M10.393 7.42053L11.4064 7.77138L10.8428 8.46614L9.83844 8.11818L9.82956 8.11006L10.393 7.42053Z" fill="#A6401C"/>
<path d="M8.63463 6.78069L9.86145 7.20514L9.18196 8.03782L7.96604 7.61686L7.95528 7.60708L8.63463 6.78069Z" fill="#C14021"/>
<path d="M4.06026 5.1365L5.82077 5.74463L4.85499 6.91074L3.11014 6.30762L3.09464 6.29376L4.06026 5.1365Z" fill="#DF4C42"/>
<path d="M2.43442 8.86714L5.2791 9.85179L3.69904 11.7964L0.879665 10.8199L0.854736 10.7971L2.43442 8.86714Z" fill="white"/>
<path d="M3.13754 6.67036L5.98222 7.65502L4.40217 9.59967L1.58279 8.62311L1.55786 8.60034L3.13754 6.67036Z" fill="white"/>
<path d="M12.9285 9.33969L13.6575 9.59193L13.2534 10.0877L12.5309 9.83753L12.5246 9.83171L12.9285 9.33969Z" fill="#113A2E"/>
<path d="M14.024 9.58712L14.6466 9.80152L14.3114 10.1943L13.6944 9.98168L13.6888 9.97689L14.024 9.58712Z" fill="#0C2721"/>
<path d="M11.5635 9.00591L12.4345 9.30814L11.9434 9.92609L11.0802 9.62634L11.0726 9.61923L11.5635 9.00591Z" fill="#174C39"/>
<path d="M10.0041 8.63576L11.0171 8.98798L10.439 9.72811L9.43507 9.37877L9.42628 9.37037L10.0041 8.63576Z" fill="#1D5F42"/>
<path d="M8.17122 8.22963L9.39738 8.65614L8.69612 9.55686L7.48087 9.13384L7.47023 9.12364L8.17122 8.22963Z" fill="#22724A"/>
<path d="M3.39437 7.21636L5.154 7.82724L4.15919 9.08408L2.41522 8.47821L2.3999 8.4638L3.39437 7.21636Z" fill="#2D9754"/>
<path d="M12.637 10.2511L13.366 10.5033L12.9619 10.9991L12.2394 10.7489L12.233 10.7431L12.637 10.2511Z" fill="#00186E"/>
<path d="M13.7924 10.3116L14.4145 10.5274L14.0648 10.9656L13.4482 10.7515L13.4428 10.7465L13.7924 10.3116Z" fill="#000B4B"/>
<path d="M11.2196 10.081L12.0908 10.3826L11.607 10.9778L10.7435 10.6788L10.7359 10.6718L11.2196 10.081Z" fill="#0040B5"/>
<path d="M9.593 9.92095L10.6066 10.2711L10.0503 10.9432L9.04574 10.5959L9.03682 10.5879L9.593 9.92095Z" fill="#005BD9"/>
<path d="M7.66996 9.7952L8.89723 10.2183L8.23225 11.0056L7.0159 10.586L7.00505 10.5765L7.66996 9.7952Z" fill="#007BFD"/>
<path d="M2.69161 9.41311L4.45211 10.0212L3.48634 11.1874L1.74149 10.5842L1.72599 10.5704L2.69161 9.41311Z" fill="#45B8FF"/>
<path d="M7.11986 4.10611L8.6488 4.63559L7.79717 5.68821L6.28182 5.16309L6.26844 5.15081L7.11986 4.10611Z" fill="#DEB705"/>
<path d="M6.51375 5.99911L8.04291 6.5279L7.19853 7.55784L5.68297 7.03341L5.66954 7.02126L6.51375 5.99911Z" fill="#DA3E27"/>
<path d="M5.93804 7.79839L7.46654 8.32924L6.60039 9.42723L5.08548 8.90073L5.07219 8.88817L5.93804 7.79839Z" fill="#288550"/>
<path d="M5.32478 9.71469L6.85395 10.2435L6.00957 11.2734L4.494 10.749L4.48057 10.7368L5.32478 9.71469Z" fill="#219CFF"/>
<path fill-rule="evenodd" clip-rule="evenodd" d="M6.77347 2.07346C7.42621 1.84372 8.12833 1.71875 8.85963 1.71875C12.3285 1.71875 15.1409 4.53056 15.1409 8C15.1409 11.4689 12.3285 14.2812 8.85963 14.2812C6.74578 14.2812 4.87574 13.2369 3.7373 11.6361L4.20272 11.1368C5.2114 12.6314 6.92063 13.6143 8.85963 13.6143C11.9607 13.6143 14.4739 11.1004 14.4739 8C14.4739 4.8989 11.9606 2.38521 8.85963 2.38521C8.06552 2.38521 7.30996 2.55006 6.62526 2.84741L6.77347 2.07346Z" fill="#2D2D2D"/>
</g>
<defs>
<linearGradient id="paint0_linear_324_1050" x1="5.89865" y1="5.38289" x2="15.2737" y2="14.4298" gradientUnits="userSpaceOnUse">
<stop stop-color="white"/>
<stop offset="1" stop-color="#CDCDCD"/>
</linearGradient>
<clipPath id="clip0_324_1050">
<rect width="14.2812" height="16" fill="white" transform="translate(0.859375)"/>
</clipPath>
</defs>
</svg>
