<svg width="16" height="16" viewBox="0 0 16 16" fill="none" xmlns="http://www.w3.org/2000/svg">
<g clip-path="url(#clip0_363_1378)">
<path fill-rule="evenodd" clip-rule="evenodd" d="M3.2 2H11.8533L14 4.20606V12.8C14 13.4627 13.4627 14 12.8 14H3.2C2.53726 14 2 13.4627 2 12.8V3.2C2 2.53726 2.53726 2 3.2 2ZM11 3.2V6.8H5V3.2H3.2V12.8H4.4V8H11.6V12.8H12.8V4.69355L11.3467 3.2H11ZM6.2 3.2V5.6H9.8V3.2H6.2ZM5.6 9.2V12.8H10.4V9.2H5.6ZM8 3.8H9.2V5H8V3.8Z" fill="#B2B2B2"/>
<path d="M11 3.2V6.8H5V3.2H3.2V12.8H4.4V8H11.6V12.8H12.8V4.69355L11.3467 3.2H11Z" fill="#323232"/>
<path fill-rule="evenodd" clip-rule="evenodd" d="M6.2 3.2V5.6H9.8V3.2H6.2ZM9.2 3.8H8V5H9.2V3.8Z" fill="#323232"/>
<path d="M5.6 9.2V12.8H10.4V9.2H5.6Z" fill="#323232"/>
<circle cx="12.5" cy="12.5" r="3" fill="white" stroke="#BABABA"/>
<path d="M10.7678 10.7674L14.3033 14.3029M10.7678 14.3029L14.3033 10.7674" stroke="url(#paint0_linear_363_1378)" stroke-linecap="round"/>
</g>
<defs>
<linearGradient id="paint0_linear_363_1378" x1="12.5" y1="9.99951" x2="12.5" y2="15.2495" gradientUnits="userSpaceOnUse">
<stop stop-color="#FF3737"/>
<stop offset="1" stop-color="#992121"/>
</linearGradient>
<clipPath id="clip0_363_1378">
<rect width="16" height="16" fill="white"/>
</clipPath>
</defs>
</svg>
