<svg width="16" height="16" viewBox="0 0 16 16" fill="none" xmlns="http://www.w3.org/2000/svg">
<g clip-path="url(#clip0_336_1941)">
<g opacity="0.65" clip-path="url(#clip1_336_1941)">
<g clip-path="url(#clip2_336_1941)">
<path d="M13.2166 1.96484C17.8169 1.96484 21.5464 5.79245 21.5464 10.5152C21.5464 15.2372 17.8169 19.0654 13.2166 19.0654C8.61638 19.0654 4.88672 15.2372 4.88672 10.5152C4.88672 5.79245 8.61619 1.96484 13.2166 1.96484Z" fill="url(#paint0_linear_336_1941)"/>
<path fill-rule="evenodd" clip-rule="evenodd" d="M13.2027 2.42874C8.86003 2.42874 5.34032 6.04235 5.34032 10.4998C5.34032 14.9569 8.86003 18.5705 13.2027 18.5705C17.5457 18.5705 21.0652 14.9569 21.0652 10.5C21.0652 6.04216 17.5455 2.42874 13.2027 2.42874ZM13.2027 1.4707C18.0607 1.4707 21.9992 5.51268 21.9992 10.5C21.9992 15.4866 18.0607 19.5293 13.2027 19.5293C8.34475 19.5293 4.40625 15.4866 4.40625 10.5C4.40625 5.51268 8.34475 1.4707 13.2027 1.4707Z" fill="#2D2D2D"/>
<path d="M6.14309 5.53205L10.1269 6.94749L7.91412 9.74293L3.96576 8.33913L3.93085 8.3064L6.14309 5.53205Z" fill="white"/>
<path d="M7.09622 2.47443L11.08 3.88987L8.86725 6.68532L4.91888 5.28151L4.88397 5.24878L7.09622 2.47443Z" fill="white"/>
<path d="M15.9262 7.8196L17.3448 8.32592L16.5353 9.38985L15.1293 8.88768L15.117 8.87561L15.9262 7.8196Z" fill="#A79804"/>
<path d="M13.5696 6.56369L15.287 7.17582L14.3151 8.438L12.6129 7.83089L12.598 7.81644L13.5696 6.56369Z" fill="#C2A905"/>
<path d="M7.4566 3.25967L9.92116 4.13682L8.53816 5.91092L6.09553 5.04097L6.07401 5.02045L7.4566 3.25967Z" fill="#F9C406"/>
<path d="M15.3506 9.66706L16.7698 10.1714L15.9806 11.1701L14.574 10.6699L14.5616 10.6583L15.3506 9.66706Z" fill="#A6401C"/>
<path d="M12.8885 8.74709L14.6066 9.35724L13.655 10.5542L11.9522 9.94909L11.9371 9.93502L12.8885 8.74709Z" fill="#C14021"/>
<path d="M6.48183 6.38388L8.94731 7.25807L7.5948 8.93436L5.15124 8.06738L5.12954 8.04745L6.48183 6.38388Z" fill="#DF4C42"/>
<path d="M4.20559 11.7469L8.18939 13.1623L5.97662 15.9578L2.02826 14.554L1.99335 14.5212L4.20559 11.7469Z" fill="white"/>
<path d="M5.18997 8.58869L9.17376 10.0041L6.961 12.7996L3.01263 11.3958L2.97772 11.363L5.18997 8.58869Z" fill="white"/>
<path d="M14.8071 11.4143L16.2257 11.9206L15.4161 12.9846L14.0102 12.4824L13.9979 12.4703L14.8071 11.4143Z" fill="#1D5F42"/>
<path d="M12.2382 10.8299L13.9554 11.443L12.9733 12.7378L11.2714 12.1297L11.2566 12.1151L12.2382 10.8299Z" fill="#22724A"/>
<path d="M5.54911 9.37354L8.01335 10.2517L6.62019 12.0584L4.17787 11.1874L4.15641 11.1667L5.54911 9.37354Z" fill="#2D9754"/>
<path d="M16.5087 13.4918L17.7287 13.9252L17.0512 14.7809L15.842 14.351L15.8313 14.341L16.5087 13.4918Z" fill="#0040B5"/>
<path d="M14.2307 13.2612L15.6502 13.7645L14.8712 14.7307L13.4643 14.2315L13.4518 14.22L14.2307 13.2612Z" fill="#005BD9"/>
<path d="M11.5374 13.0809L13.2562 13.689L12.3249 14.8208L10.6215 14.2177L10.6063 14.204L11.5374 13.0809Z" fill="#007BFD"/>
<path d="M4.56581 12.5313L7.03129 13.4055L5.67878 15.0818L3.23523 14.2148L3.21353 14.1949L4.56581 12.5313Z" fill="#45B8FF"/>
<path d="M10.7666 4.90252L12.9078 5.66365L11.7151 7.17679L9.593 6.42193L9.57425 6.40427L10.7666 4.90252Z" fill="#DEB705"/>
<path d="M9.91826 7.62362L12.0598 8.38375L10.8773 9.86429L8.7548 9.11042L8.73599 9.09296L9.91826 7.62362Z" fill="#DA3E27"/>
<path d="M9.11178 10.2103L11.2524 10.9734L10.0394 12.5518L7.91783 11.7949L7.89921 11.7769L9.11178 10.2103Z" fill="#288550"/>
<path d="M8.25419 12.9644L10.3957 13.7246L9.21319 15.2051L7.09074 14.4512L7.07193 14.4338L8.25419 12.9644Z" fill="#219CFF"/>
<path fill-rule="evenodd" clip-rule="evenodd" d="M10.2813 1.9806C11.1954 1.65034 12.1787 1.4707 13.2028 1.4707C18.0608 1.4707 21.9993 5.51268 21.9993 10.5C21.9993 15.4866 18.0608 19.5293 13.2028 19.5293C10.2425 19.5293 7.6236 18.0281 6.0293 15.7269L6.68108 15.0091C8.09367 17.1576 10.4873 18.5705 13.2028 18.5705C17.5457 18.5705 21.0652 14.9569 21.0652 10.5C21.0652 6.04216 17.5455 2.42874 13.2028 2.42874C12.0907 2.42874 11.0326 2.66572 10.0737 3.09315L10.2813 1.9806Z" fill="#2D2D2D"/>
</g>
</g>
<path d="M0 2H2H5V4H2V7H0V2Z" fill="#4EC95A"/>
<path d="M16 2V4V7H14V4H11V2L16 2Z" fill="#4EC95A"/>
<path d="M16 14L14 14L11 14L11 12L14 12L14 9L16 9L16 14Z" fill="#4EC95A"/>
<path d="M0 14L0 12L0 9H2V12H5V14H0Z" fill="#4EC95A"/>
</g>
<defs>
<linearGradient id="paint0_linear_336_1941" x1="9.05551" y1="6.73825" x2="22.515" y2="19.3917" gradientUnits="userSpaceOnUse">
<stop stop-color="white"/>
<stop offset="1" stop-color="#CDCDCD"/>
</linearGradient>
<clipPath id="clip0_336_1941">
<rect width="16" height="16" fill="white"/>
</clipPath>
<clipPath id="clip1_336_1941">
<rect width="41" height="12" fill="white" transform="translate(-11 2)"/>
</clipPath>
<clipPath id="clip2_336_1941">
<rect width="20" height="23" fill="white" transform="translate(2 -1)"/>
</clipPath>
</defs>
</svg>
