<svg width="16" height="16" viewBox="0 0 16 16" fill="none" xmlns="http://www.w3.org/2000/svg">
<path d="M8.8999 11.5024H6.79395C6.72591 11.5024 6.69189 11.4777 6.69189 11.4282V10.3984C6.69189 9.89128 6.80941 9.38411 7.04443 8.87695C7.27946 8.36361 7.60107 7.90283 8.00928 7.49463C8.20101 7.3029 8.36491 7.1359 8.50098 6.99365C8.64323 6.84521 8.75765 6.71842 8.84424 6.61328C9.0236 6.40299 9.13802 6.21126 9.1875 6.03809C9.23698 5.85872 9.26172 5.64844 9.26172 5.40723C9.26172 4.96191 9.12874 4.59082 8.86279 4.29395C8.59684 3.99707 8.25977 3.84863 7.85156 3.84863C7.44954 3.84863 7.11247 3.99707 6.84033 4.29395C6.5682 4.59082 6.43213 4.96191 6.43213 5.40723V6.78955C6.43213 6.83903 6.40739 6.86377 6.35791 6.86377H4.20557C4.15609 6.86377 4.13135 6.83903 4.13135 6.78955V5.40723C4.13135 4.69596 4.30143 4.04964 4.6416 3.46826C4.97559 2.88688 5.42399 2.42611 5.98682 2.08594C6.54964 1.73958 7.17122 1.56641 7.85156 1.56641C8.53809 1.56641 9.16276 1.73649 9.72559 2.07666C10.2884 2.41683 10.7337 2.8807 11.0615 3.46826C11.3955 4.04964 11.5625 4.69596 11.5625 5.40723C11.5625 5.80924 11.5192 6.17725 11.4326 6.51123C11.3398 6.83285 11.1729 7.16992 10.9316 7.52246C10.6904 7.86882 10.3348 8.30176 9.86475 8.82129C9.54932 9.1429 9.32357 9.4305 9.1875 9.68408C9.05762 9.93766 8.99268 10.216 8.99268 10.519V11.4282C8.99268 11.4777 8.96175 11.5024 8.8999 11.5024ZM8.8999 15H6.79395C6.72591 15 6.69189 14.9691 6.69189 14.9072V12.792C6.69189 12.7425 6.72591 12.7178 6.79395 12.7178H8.8999C8.96175 12.7178 8.99268 12.7425 8.99268 12.792V14.9072C8.99268 14.9691 8.96175 15 8.8999 15Z" fill="url(#paint0_linear_363_1251)"/>
<defs>
<linearGradient id="paint0_linear_363_1251" x1="8" y1="1" x2="8" y2="17" gradientUnits="userSpaceOnUse">
<stop stop-color="#FA5FFF"/>
<stop offset="1" stop-color="#A317A8"/>
</linearGradient>
</defs>
</svg>
