<svg width="16" height="16" viewBox="0 0 16 16" fill="none" xmlns="http://www.w3.org/2000/svg">
<path d="M8 1.5C11.5898 1.5 14.5 4.41013 14.5 8C14.5 11.5899 11.5898 14.5 8 14.5C4.41017 14.5 1.5 11.5899 1.5 8C1.5 4.41013 4.41017 1.5 8 1.5ZM7.00977 11.4092C6.90259 11.419 6.79549 11.4303 6.68848 11.4434C6.79133 11.6188 6.89992 11.7713 7.00977 11.9023V11.4092ZM8.99023 11.9023C9.09999 11.7714 9.20777 11.6187 9.31055 11.4434C9.20386 11.4303 9.0971 11.419 8.99023 11.4092V11.9023ZM3.45801 8.99023C3.54097 9.37127 3.67232 9.7341 3.84277 10.0742C3.92274 10.0471 4.00276 10.0206 4.08301 9.99512C4.01832 9.66835 3.97146 9.33226 3.93945 8.99023H3.45801ZM12.0605 8.99023C12.0285 9.33233 11.9807 9.66829 11.916 9.99512C11.9963 10.0206 12.0763 10.0471 12.1562 10.0742C12.3268 9.73399 12.459 9.37142 12.542 8.99023H12.0605ZM5.93262 8.99023C5.95458 9.17623 5.98218 9.35808 6.01562 9.53516C6.34596 9.48327 6.67766 9.44581 7.00977 9.41992V8.99023H5.93262ZM8.99023 9.41895C9.32206 9.4448 9.65336 9.48335 9.9834 9.53516C10.0169 9.35803 10.0454 9.17629 10.0674 8.99023H8.99023V9.41895ZM12.1562 5.9248C12.0763 5.9519 11.9963 5.9784 11.916 6.00391C11.9808 6.33102 12.0285 6.66734 12.0605 7.00977H12.542C12.4589 6.62828 12.327 6.26525 12.1562 5.9248ZM9.9834 6.46387C9.65334 6.51567 9.32209 6.55423 8.99023 6.58008V7.00977H10.0674C10.0454 6.82338 10.0169 6.64129 9.9834 6.46387ZM6.01562 6.46387C5.9821 6.64124 5.95462 6.82344 5.93262 7.00977H7.00977V6.5791C6.67764 6.55321 6.34599 6.51576 6.01562 6.46387ZM3.84277 5.9248C3.67214 6.26514 3.54104 6.62843 3.45801 7.00977H3.93945C3.97148 6.66741 4.01823 6.33097 4.08301 6.00391C4.00275 5.9784 3.92275 5.95191 3.84277 5.9248ZM7.00977 4.09668C6.8999 4.22765 6.79135 4.38024 6.68848 4.55566C6.7955 4.56874 6.90258 4.57998 7.00977 4.58984V4.09668ZM8.99023 4.58984C9.0971 4.58002 9.20384 4.56868 9.31055 4.55566C9.20775 4.38042 9.1 4.22754 8.99023 4.09668V4.58984Z" fill="url(#paint0_linear_346_1041)" stroke="#11707C"/>
<defs>
<linearGradient id="paint0_linear_346_1041" x1="8" y1="2" x2="8" y2="14" gradientUnits="userSpaceOnUse">
<stop stop-color="#00E1FF"/>
<stop offset="1" stop-color="#5A99A1"/>
</linearGradient>
</defs>
</svg>
