<svg width="16" height="16" viewBox="0 0 16 16" fill="none" xmlns="http://www.w3.org/2000/svg">
<path fill-rule="evenodd" clip-rule="evenodd" d="M12.1176 10C12.3449 10 12.5294 10.1792 12.5294 10.4V11.2C12.5294 11.4208 12.3449 11.6 12.1176 11.6H11.2941C11.0668 11.6 10.8824 11.4208 10.8824 11.2V10.4C10.8824 10.1792 11.0668 10 11.2941 10H12.1176H12.1176ZM9.64706 10C9.87435 10 10.0588 10.1792 10.0588 10.4V11.2C10.0588 11.4208 9.87435 11.6 9.64706 11.6H6.35294C6.12565 11.6 5.94118 11.4208 5.94118 11.2V10.4C5.94118 10.1792 6.12565 10 6.35294 10H9.64706ZM4.70588 10C4.93318 10 5.11764 10.1792 5.11764 10.4V11.2C5.11764 11.4208 4.93318 11.6 4.70588 11.6H3.88236C3.65506 11.6 3.47059 11.4208 3.47059 11.2V10.4C3.47059 10.1792 3.65506 10 3.88235 10H4.70588ZM12.1176 7.6C12.3449 7.6 12.5294 7.77921 12.5294 7.99999V8.8C12.5294 9.0208 12.3449 9.19999 12.1176 9.19999H11.2941C11.0668 9.19999 10.8824 9.0208 10.8824 8.8V8C10.8824 7.7792 11.0668 7.6 11.2941 7.6L12.1176 7.6ZM9.64706 7.6C9.87435 7.6 10.0588 7.77921 10.0588 7.99999V8.8C10.0588 9.0208 9.87435 9.19999 9.64706 9.19999H8.82354C8.59623 9.19999 8.41177 9.0208 8.41177 8.8V8C8.41177 7.7792 8.59623 7.6 8.82353 7.6L9.64706 7.6ZM4.70588 7.6C4.93318 7.6 5.11764 7.77921 5.11764 7.99999V8.8C5.11764 9.0208 4.93318 9.19999 4.70588 9.19999H3.88236C3.65506 9.19999 3.47059 9.0208 3.47059 8.8V8C3.47059 7.7792 3.65506 7.6 3.88235 7.6L4.70588 7.6ZM7.17647 7.6C7.40377 7.6 7.58823 7.77921 7.58823 7.99999V8.8C7.58823 9.0208 7.40377 9.19999 7.17647 9.19999H6.35294C6.12565 9.19999 5.94118 9.0208 5.94118 8.8V8C5.94118 7.7792 6.12565 7.6 6.35294 7.6H7.17646L7.17647 7.6ZM13.7647 5.2H8.44718C8.55588 4.584 8.92812 4.396 9.41977 4.1576C10.0712 3.8416 10.8824 3.4472 10.8824 2H10.0588C10.0588 2.9528 9.63635 3.1576 9.05082 3.4424C8.4653 3.7264 7.75623 4.0816 7.61788 5.2H2.2353C1.55423 5.2 1 5.73841 1 6.4V12.8C1 13.4616 1.55424 14 2.2353 14H13.7647C14.4458 14 15 13.4616 15 12.8V6.4C15 5.7384 14.4458 5.2 13.7647 5.2Z" fill="#AAAAAA"/>
</svg>
