<svg width="16" height="16" viewBox="0 0 16 16" fill="none" xmlns="http://www.w3.org/2000/svg">
<path d="M10.0088 2.5L13.5 5.24316V13.5H2.5V2.5H10.0088Z" fill="url(#paint0_linear_362_1205)" stroke="#15A5DE"/>
<path d="M4.13756 12H3.34459C3.32636 12 3.31725 11.9886 3.31725 11.9658L3.33092 7.15674C3.33092 7.13851 3.34003 7.12939 3.35826 7.12939H4.7733C5.02623 7.12939 5.25865 7.19092 5.47057 7.31396C5.68248 7.43701 5.8511 7.60221 5.97643 7.80957C6.10403 8.01693 6.16783 8.25163 6.16783 8.51367C6.16783 8.68457 6.14163 8.83952 6.08922 8.97852C6.03681 9.11751 5.97529 9.23486 5.90465 9.33057C5.83629 9.42627 5.77363 9.49691 5.71666 9.54248C5.96959 9.82275 6.09605 10.152 6.09605 10.5303L6.10289 11.9658C6.10289 11.9886 6.0915 12 6.06871 12H5.27574C5.25751 12 5.2484 11.9932 5.2484 11.9795V10.5303C5.2484 10.3617 5.18915 10.2158 5.07066 10.0928C4.95217 9.96973 4.80634 9.9082 4.63316 9.9082H4.17174L4.1649 11.9658C4.1649 11.9886 4.15579 12 4.13756 12ZM4.7733 7.9668H4.17174V9.06738H4.7733C4.91686 9.06738 5.04446 9.01383 5.15611 8.90674C5.27005 8.79964 5.32701 8.66862 5.32701 8.51367C5.32701 8.36556 5.27232 8.23796 5.16295 8.13086C5.05357 8.02148 4.92369 7.9668 4.7733 7.9668ZM7.71289 12.0684C7.46452 12.0684 7.23551 12.0046 7.02588 11.877C6.81852 11.7493 6.65104 11.5796 6.52344 11.3677C6.39811 11.1535 6.33545 10.9188 6.33545 10.6636L6.34229 8.44531C6.34229 8.18555 6.40495 7.95199 6.53027 7.74463C6.65332 7.53499 6.81966 7.36751 7.0293 7.24219C7.23893 7.11458 7.4668 7.05078 7.71289 7.05078C7.9681 7.05078 8.1971 7.11344 8.3999 7.23877C8.60498 7.3641 8.76904 7.53271 8.89209 7.74463C9.01742 7.95426 9.08008 8.18783 9.08008 8.44531L9.08691 10.6636C9.08691 10.9188 9.02539 11.1523 8.90234 11.3643C8.77702 11.5785 8.61068 11.7493 8.40332 11.877C8.19596 12.0046 7.96582 12.0684 7.71289 12.0684ZM7.71289 11.2241C7.85417 11.2241 7.97721 11.1672 8.08203 11.0532C8.18685 10.937 8.23926 10.8071 8.23926 10.6636L8.23242 8.44531C8.23242 8.29036 8.18343 8.15934 8.08545 8.05225C7.98747 7.94515 7.86328 7.8916 7.71289 7.8916C7.56934 7.8916 7.44629 7.94401 7.34375 8.04883C7.24121 8.15365 7.18994 8.28581 7.18994 8.44531V10.6636C7.18994 10.8162 7.24121 10.9484 7.34375 11.0601C7.44629 11.1694 7.56934 11.2241 7.71289 11.2241ZM10.297 12H9.50404C9.48581 12 9.4767 11.9886 9.4767 11.9658L9.49037 7.15674C9.49037 7.13851 9.49949 7.12939 9.51771 7.12939H10.3722C10.3904 7.12939 10.4064 7.13851 10.4201 7.15674L11.0592 8.07959L11.695 7.15674C11.7086 7.13851 11.7257 7.12939 11.7462 7.12939H12.6041C12.6246 7.12939 12.6349 7.13851 12.6349 7.15674L12.6486 11.9658C12.6486 11.9886 12.6395 12 12.6212 12H11.8283C11.81 12 11.8009 11.9886 11.8009 11.9658L11.7941 8.39404L11.0592 9.46045L10.3312 8.39404L10.3244 11.9658C10.3244 11.9886 10.3152 12 10.297 12Z" fill="white"/>
<path d="M10 2.5V6H13.5" stroke="#15A5DE"/>
<defs>
<linearGradient id="paint0_linear_362_1205" x1="8" y1="2" x2="8" y2="14" gradientUnits="userSpaceOnUse">
<stop stop-color="#3DC8FF"/>
<stop offset="1" stop-color="#41849E"/>
</linearGradient>
</defs>
</svg>
