<svg width="16" height="16" viewBox="0 0 16 16" fill="none" xmlns="http://www.w3.org/2000/svg">
<path fill-rule="evenodd" clip-rule="evenodd" d="M11.9224 7.08366C12.6642 7.12556 13.1346 7.24243 13.4728 7.5684C14 8.07657 14 8.89442 14 10.5301C14 12.1658 14 12.9837 13.4728 13.4918C12.9456 14 12.097 14 10.4 14H5.6C3.90294 14 3.05442 14 2.52721 13.4918C2 12.9837 2 12.1658 2 10.5301C2 8.89442 2 8.07657 2.52721 7.5684C2.84559 7.26149 3.28115 7.13999 3.95 7.09182V5.90361C3.95 3.74771 5.76325 2 8 2C9.88778 2 11.9224 3.97558 11.9224 5.90361V7.08366ZM8 2.86747C9.46718 2.86747 11.0508 4.5 11.0287 5.90361L11.0508 7.06155C10.8488 7.06024 10.6324 7.06024 10.4 7.06024H5.6C5.32909 7.06024 5.07981 7.06024 4.85 7.06232V5.90361C4.85 4.2268 6.26031 2.86747 8 2.86747ZM8 11.6867C8.66276 11.6867 9.2 11.1689 9.2 10.5301C9.2 9.89132 8.66276 9.37349 8 9.37349C7.33724 9.37349 6.8 9.89132 6.8 10.5301C6.8 11.1689 7.33724 11.6867 8 11.6867Z" fill="url(#paint0_linear_336_2048)"/>
<path d="M8 1.5C9.11018 1.5 10.2104 2.07354 11.0205 2.87305C11.8308 3.67284 12.4227 4.76946 12.4229 5.90332V6.62695C12.9753 6.69662 13.4453 6.84774 13.8193 7.20801C14.1945 7.56964 14.3556 8.02629 14.4297 8.55762C14.5015 9.07257 14.5 9.72723 14.5 10.5303C14.5 11.3334 14.5015 11.988 14.4297 12.5029C14.3556 13.0343 14.1945 13.4899 13.8193 13.8516C13.4468 14.2106 12.9817 14.3623 12.4395 14.4326C11.9098 14.5013 11.2351 14.5 10.4004 14.5H5.59961C4.7649 14.5 4.09025 14.5013 3.56055 14.4326C3.01829 14.3623 2.55324 14.2106 2.18066 13.8516C1.80548 13.4899 1.64443 13.0343 1.57031 12.5029C1.49848 11.988 1.5 11.3334 1.5 10.5303C1.5 9.72723 1.49852 9.07257 1.57031 8.55762C1.64443 8.02629 1.80548 7.56964 2.18066 7.20801C2.52662 6.87474 2.95369 6.72007 3.4502 6.64355V5.90332C3.45036 3.45422 5.50471 1.5 8 1.5ZM8 9.87305C7.59587 9.87305 7.2998 10.1848 7.2998 10.5303C7.29989 10.8757 7.59593 11.1865 8 11.1865C8.40407 11.1865 8.70011 10.8757 8.7002 10.5303C8.7002 10.1848 8.40413 9.87305 8 9.87305ZM8 3.36719C6.51904 3.36719 5.34977 4.51997 5.34961 5.90332V6.56055H10.54L10.5283 5.91309V5.89551C10.5365 5.37188 10.235 4.73544 9.7168 4.21094C9.19991 3.68773 8.55797 3.36719 8 3.36719Z" stroke="black" stroke-opacity="0.46"/>
<defs>
<linearGradient id="paint0_linear_336_2048" x1="5" y1="3" x2="12" y2="14" gradientUnits="userSpaceOnUse">
<stop stop-color="#EDC110"/>
<stop offset="1" stop-color="#D09C22"/>
</linearGradient>
</defs>
</svg>
