<svg width="16" height="16" viewBox="0 0 16 16" fill="none" xmlns="http://www.w3.org/2000/svg">
<g clip-path="url(#clip0_336_2045)">
<path fill-rule="evenodd" clip-rule="evenodd" d="M4.85 5.90361C4.85 4.2268 6.26031 2.86747 8 2.86747C9.46718 2.86747 10.7011 3.83465 11.0508 5.14425C11.1127 5.37624 11.3581 5.5159 11.5987 5.45619C11.8395 5.39648 11.9843 5.16002 11.9224 4.92803C11.4728 3.24447 9.88778 2 8 2C5.76325 2 3.95 3.74771 3.95 5.90361V7.09182C3.28115 7.13999 2.84559 7.26149 2.52721 7.5684C2 8.07657 2 8.89442 2 10.5301C2 12.1658 2 12.9837 2.52721 13.4918C3.05442 14 3.90294 14 5.6 14H10.4C12.097 14 12.9456 14 13.4728 13.4918C14 12.9837 14 12.1658 14 10.5301C14 8.89442 14 8.07657 13.4728 7.5684C12.9456 7.06024 12.097 7.06024 10.4 7.06024H5.6C5.32909 7.06024 5.07981 7.06024 4.85 7.06232V5.90361ZM9.2 10.5301C9.2 11.1689 8.66276 11.6867 8 11.6867C7.33724 11.6867 6.8 11.1689 6.8 10.5301C6.8 9.89132 7.33724 9.37349 8 9.37349C8.66276 9.37349 9.2 9.89132 9.2 10.5301Z" fill="#AAAAAA"/>
</g>
<defs>
<clipPath id="clip0_336_2045">
<rect width="12" height="12" fill="white" transform="translate(2 2)"/>
</clipPath>
</defs>
</svg>
