<svg width="16" height="16" viewBox="0 0 16 16" fill="none" xmlns="http://www.w3.org/2000/svg">
<path d="M11 6.32033V7.23939C11.0004 8.20932 10.6845 9.1404 10.1206 9.831C9.84822 10.1663 9.52452 10.4346 9.16747 10.621C8.89834 10.7614 8.61326 10.8522 8.32178 10.8904V12.2227H9.66467C9.75001 12.2227 9.83185 12.2636 9.8922 12.3365C9.95255 12.4094 9.98645 12.5082 9.98645 12.6113C9.98645 12.7144 9.95255 12.8133 9.8922 12.8862C9.83185 12.959 9.75001 13 9.66467 13H6.33533C6.24999 13 6.16815 12.959 6.1078 12.8862C6.04746 12.8133 6.01355 12.7144 6.01355 12.6113C6.01355 12.5082 6.04746 12.4094 6.1078 12.3365C6.16815 12.2636 6.24999 12.2227 6.33533 12.2227H7.67822V10.8904C7.38675 10.8522 7.10168 10.7614 6.83253 10.621C6.47548 10.4346 6.15178 10.1663 5.87938 9.831C5.31539 9.14023 4.99944 8.20886 5 7.23869V6.31963C5 6.26854 5.00833 6.21796 5.02452 6.17076C5.0407 6.12356 5.06443 6.08067 5.09433 6.04455C5.12424 6.00843 5.15975 5.97977 5.19882 5.96022C5.2379 5.94067 5.27978 5.93061 5.32207 5.93061C5.36437 5.93061 5.40625 5.94067 5.44532 5.96022C5.4844 5.97977 5.5199 6.00843 5.54981 6.04455C5.57972 6.08067 5.60344 6.12356 5.61963 6.17076C5.63581 6.21796 5.64414 6.26854 5.64414 6.31963V7.23869C5.64246 8.00485 5.89202 8.74065 6.33824 9.28517C6.55418 9.55363 6.81251 9.76704 7.09795 9.91277C7.38338 10.0585 7.69012 10.1336 8 10.1336C8.30988 10.1336 8.61662 10.0585 8.90206 9.91277C9.18749 9.76704 9.44582 9.55363 9.66176 9.28517C10.1079 8.74056 10.3574 8.00482 10.3559 7.23869V6.31963C10.3559 6.21645 10.3898 6.11751 10.4502 6.04455C10.5106 5.97159 10.5925 5.93061 10.6779 5.93061C10.7633 5.93061 10.8453 5.97159 10.9057 6.04455C10.9661 6.11751 11 6.21716 11 6.32033ZM6.41433 8.04269C6.32409 7.78872 6.27803 7.51506 6.27899 7.23869V4.09144C6.27757 3.81229 6.32363 3.53577 6.41433 3.27902C6.5908 2.77662 6.92192 2.37667 7.33785 2.16352C7.5504 2.05391 7.77935 1.99827 8.01046 2.00005C8.24045 1.9981 8.46828 2.05376 8.67957 2.16352C8.99045 2.32628 9.25489 2.59577 9.44004 2.93853C9.62519 3.28128 9.72289 3.68218 9.72101 4.09144L9.71404 7.23939C9.71539 7.78834 9.53661 8.31558 9.21684 8.70568C9.0602 8.89396 8.87556 9.04487 8.6726 9.15047C8.46131 9.26023 8.23348 9.31589 8.00349 9.31394C7.77238 9.31566 7.54345 9.26003 7.33088 9.15047C6.91727 8.94004 6.58828 8.54241 6.41433 8.04269Z" fill="url(#paint0_linear_347_1180)"/>
<path d="M8.01367 1.50098C8.24696 1.49992 8.47673 1.54102 8.69434 1.62305L8.91016 1.71973L8.91113 1.7207C9.31984 1.93469 9.65282 2.28083 9.87988 2.70117C10.1065 3.12078 10.2217 3.60391 10.2197 4.0918L10.2207 4.09277L10.2168 5.58301C10.3452 5.48927 10.5031 5.43071 10.6777 5.43066L10.7705 5.43652C10.9524 5.45847 11.1123 5.54352 11.2334 5.66309L11.291 5.72559L11.3408 5.79199C11.4487 5.95092 11.5 6.13873 11.5 6.32031V7.23926L11.4961 7.44043C11.4557 8.44296 11.1104 9.40695 10.5078 10.1455C10.1956 10.5299 9.82021 10.8443 9.39844 11.0645C9.21328 11.161 9.01985 11.2351 8.82227 11.292V11.7227H9.66504C9.88501 11.7228 10.0786 11.8158 10.2197 11.9551L10.2773 12.0176L10.3271 12.084C10.4347 12.2422 10.4863 12.4292 10.4863 12.6113C10.4863 12.8197 10.4187 13.0343 10.2773 13.2051C10.1338 13.3785 9.91658 13.4999 9.66504 13.5H6.33496C6.08342 13.4999 5.86622 13.3785 5.72266 13.2051C5.61652 13.0769 5.552 12.924 5.52637 12.7676L5.51367 12.6113L5.52637 12.4551C5.552 12.2987 5.61652 12.1458 5.72266 12.0176C5.86623 11.8442 6.08343 11.7228 6.33496 11.7227H7.17773V11.292C6.98015 11.2351 6.78673 11.161 6.60156 11.0645C6.17982 10.8443 5.8034 10.5308 5.49121 10.1465V10.1455C4.84844 9.3575 4.49938 8.31228 4.5 7.23828V6.31934C4.50003 6.21454 4.51731 6.1093 4.55176 6.00879L4.61719 5.86133C4.64339 5.814 4.67367 5.76825 4.70898 5.72559L4.76562 5.66406C4.82567 5.60451 4.89623 5.5524 4.97559 5.5127C5.08161 5.45975 5.1999 5.43066 5.32227 5.43066L5.41309 5.43555C5.50295 5.44628 5.58938 5.47292 5.66895 5.5127C5.70818 5.53233 5.74468 5.55607 5.7793 5.58105V4.0918C5.77784 3.75758 5.83246 3.42477 5.94238 3.11328C6.15472 2.50878 6.5632 1.99971 7.1084 1.71973C7.38786 1.57562 7.69378 1.49996 8.00586 1.50098C8.00867 1.50095 8.01184 1.50001 8.01465 1.5L8.01367 1.50098Z" stroke="black" stroke-opacity="0.45"/>
<defs>
<linearGradient id="paint0_linear_347_1180" x1="8" y1="2" x2="8" y2="13" gradientUnits="userSpaceOnUse">
<stop stop-color="#E0E0E0"/>
<stop offset="1" stop-color="#B4B4B4"/>
</linearGradient>
</defs>
</svg>
