<svg width="16" height="16" viewBox="0 0 16 16" fill="none" xmlns="http://www.w3.org/2000/svg">
<path d="M1.9209 12H0.919922C0.867839 12 0.841797 11.9772 0.841797 11.9316L0.832031 5.12012C0.832031 5.06803 0.858073 5.04199 0.910156 5.04199H1.81348L3.50293 8.98242L3.4541 5.12012C3.4541 5.06803 3.4834 5.04199 3.54199 5.04199H4.5332C4.57227 5.04199 4.5918 5.06803 4.5918 5.12012L4.60156 11.9414C4.60156 11.9805 4.58529 12 4.55273 12H3.67383L1.94043 8.31836L2.01367 11.9219C2.01367 11.974 1.98275 12 1.9209 12ZM8.74219 12H5.50977C5.48372 12 5.4707 11.9837 5.4707 11.9512L5.48047 5.08105C5.48047 5.05501 5.49349 5.04199 5.51953 5.04199H8.73242C8.75846 5.04199 8.77148 5.05827 8.77148 5.09082V6.20898C8.77148 6.23503 8.75846 6.24805 8.73242 6.24805H6.68164V7.81055H8.73242C8.75846 7.81055 8.77148 7.82357 8.77148 7.84961L8.78125 8.98242C8.78125 9.00846 8.76823 9.02148 8.74219 9.02148H6.68164V10.7695H8.74219C8.76823 10.7695 8.78125 10.7858 8.78125 10.8184V11.9609C8.78125 11.987 8.76823 12 8.74219 12ZM11.8037 12H10.5928C10.5635 12 10.5472 11.9837 10.5439 11.9512L9.3623 5.08105C9.35579 5.05501 9.36556 5.04199 9.3916 5.04199H10.5146C10.5407 5.04199 10.557 5.05501 10.5635 5.08105L11.2031 9.59766L11.8623 5.08105C11.8688 5.05501 11.8883 5.04199 11.9209 5.04199H12.8242C12.8503 5.04199 12.8665 5.05501 12.873 5.08105L13.5225 9.59766L14.1719 5.08105C14.1784 5.05501 14.1947 5.04199 14.2207 5.04199H15.334C15.3665 5.04199 15.3796 5.05501 15.373 5.08105L14.1816 11.9512C14.1784 11.9642 14.1686 11.9756 14.1523 11.9854L14.1328 12H12.9219C12.9023 12 12.8861 11.9837 12.873 11.9512L12.3604 8.3623L11.8525 11.9512C11.8493 11.9837 11.833 12 11.8037 12Z" fill="#15A5DE"/>
</svg>
