<svg width="16" height="16" viewBox="0 0 16 16" fill="none" xmlns="http://www.w3.org/2000/svg">
<rect width="14" height="10" transform="translate(1 3)" fill="#000C7A"/>
<path d="M15 13H4.37931H1V4.99982L2.34167 6.02195C3.68378 7.04443 5.45889 7.301 7.0356 6.7004C7.67412 6.45717 8.26791 6.1098 8.79283 5.6724L9.23011 5.30803C10.873 3.93907 13.2206 3.81367 15 4.99982V13Z" fill="#214AB9"/>
<g clip-path="url(#clip0_341_1041)">
<rect x="0.5" y="2.5" width="15" height="11" rx="0.5" stroke="#BCCDFF"/>
<rect width="2" height="8" transform="translate(1 4)" fill="url(#paint0_linear_341_1041)"/>
</g>
<path d="M7.5083 8H6.94678C6.9305 8 6.92236 7.99186 6.92236 7.97559L6.93213 4.54053C6.93213 4.52751 6.93864 4.521 6.95166 4.521H7.91357C8.21956 4.521 8.46126 4.61458 8.63867 4.80176C8.81771 4.9873 8.90723 5.2404 8.90723 5.56104C8.90723 5.79541 8.86084 5.99967 8.76807 6.17383C8.67367 6.34635 8.5516 6.47982 8.40186 6.57422C8.25212 6.66862 8.08936 6.71582 7.91357 6.71582H7.53271V7.97559C7.53271 7.99186 7.52458 8 7.5083 8ZM7.91357 5.11426L7.53271 5.11914V6.11035H7.91357C8.01937 6.11035 8.11133 6.0599 8.18945 5.95898C8.26758 5.85645 8.30664 5.7238 8.30664 5.56104C8.30664 5.43083 8.27165 5.32422 8.20166 5.24121C8.13167 5.15658 8.03564 5.11426 7.91357 5.11426ZM10.1279 8.04883C9.94727 8.04883 9.78206 8.00326 9.63232 7.91211C9.48421 7.82096 9.36621 7.69889 9.27832 7.5459C9.19206 7.39128 9.14893 7.21956 9.14893 7.03076L9.15381 5.4707C9.15381 5.28516 9.19613 5.11751 9.28076 4.96777C9.3654 4.81641 9.48177 4.69515 9.62988 4.604C9.77962 4.51123 9.94564 4.46484 10.1279 4.46484C10.3135 4.46484 10.4787 4.5096 10.6235 4.59912C10.77 4.68864 10.8864 4.8099 10.9727 4.96289C11.0605 5.11426 11.1045 5.28353 11.1045 5.4707V5.7002C11.1045 5.71322 11.098 5.71973 11.085 5.71973H10.5234C10.5104 5.71973 10.5039 5.71322 10.5039 5.7002V5.4707C10.5039 5.36003 10.4681 5.26481 10.3965 5.18506C10.3249 5.10531 10.2354 5.06543 10.1279 5.06543C10.0091 5.06543 9.91797 5.10612 9.85449 5.1875C9.79102 5.26888 9.75928 5.36328 9.75928 5.4707V7.03076C9.75928 7.15283 9.79508 7.25293 9.8667 7.33105C9.93831 7.40755 10.0254 7.4458 10.1279 7.4458C10.2354 7.4458 10.3249 7.40348 10.3965 7.31885C10.4681 7.23258 10.5039 7.13656 10.5039 7.03076V6.79883C10.5039 6.78581 10.5104 6.7793 10.5234 6.7793H11.0898C11.1029 6.7793 11.1094 6.78581 11.1094 6.79883V7.03076C11.1094 7.21794 11.0654 7.38883 10.9775 7.54346C10.888 7.69645 10.77 7.81934 10.6235 7.91211C10.4771 8.00326 10.3118 8.04883 10.1279 8.04883ZM5.5332 12.0488C5.35254 12.0488 5.18734 12.0033 5.0376 11.9121C4.88949 11.821 4.77148 11.6989 4.68359 11.5459C4.59733 11.3913 4.5542 11.2196 4.5542 11.0308L4.55908 9.4707C4.55908 9.28516 4.6014 9.11751 4.68604 8.96777C4.77067 8.81641 4.88704 8.69515 5.03516 8.604C5.1849 8.51123 5.35091 8.46484 5.5332 8.46484C5.71875 8.46484 5.88395 8.5096 6.02881 8.59912C6.17529 8.68864 6.29167 8.8099 6.37793 8.96289C6.46582 9.11426 6.50977 9.28353 6.50977 9.4707V9.7002C6.50977 9.71322 6.50326 9.71973 6.49023 9.71973H5.92871C5.91569 9.71973 5.90918 9.71322 5.90918 9.7002V9.4707C5.90918 9.36003 5.87337 9.26481 5.80176 9.18506C5.73014 9.10531 5.64062 9.06543 5.5332 9.06543C5.41439 9.06543 5.32324 9.10612 5.25977 9.1875C5.19629 9.26888 5.16455 9.36328 5.16455 9.4707V11.0308C5.16455 11.1528 5.20036 11.2529 5.27197 11.3311C5.34359 11.4076 5.43066 11.4458 5.5332 11.4458C5.64062 11.4458 5.73014 11.4035 5.80176 11.3188C5.87337 11.2326 5.90918 11.1366 5.90918 11.0308V10.7988C5.90918 10.7858 5.91569 10.7793 5.92871 10.7793H6.49512C6.50814 10.7793 6.51465 10.7858 6.51465 10.7988V11.0308C6.51465 11.2179 6.4707 11.3888 6.38281 11.5435C6.29329 11.6965 6.17529 11.8193 6.02881 11.9121C5.88232 12.0033 5.71712 12.0488 5.5332 12.0488ZM6.70996 11.9756L7.33008 8.54053C7.33333 8.52751 7.34147 8.521 7.35449 8.521H8.07959C8.09261 8.521 8.10075 8.52751 8.104 8.54053L8.69971 11.9756C8.70133 11.9919 8.69482 12 8.68018 12H8.12598C8.1097 12 8.10075 11.9919 8.09912 11.9756L8.04541 11.6094H7.36426L7.31055 11.9756C7.30892 11.9919 7.30078 12 7.28613 12H6.72949C6.71647 12 6.70996 11.9919 6.70996 11.9756ZM7.74023 9.6709L7.71094 9.48535L7.68896 9.6709L7.46436 11.0747H7.94531L7.74023 9.6709ZM9.59814 12H9.03174C9.01872 12 9.01221 11.9919 9.01221 11.9756L9.02197 8.54053C9.02197 8.52751 9.02848 8.521 9.0415 8.521H10.0522C10.2329 8.521 10.3989 8.56494 10.5503 8.65283C10.7017 8.74072 10.8221 8.85872 10.9116 9.00684C11.0028 9.15495 11.0483 9.32259 11.0483 9.50977C11.0483 9.63184 11.0296 9.74251 10.9922 9.8418C10.9548 9.94108 10.9108 10.0249 10.8604 10.0933C10.8115 10.1616 10.7668 10.2121 10.7261 10.2446C10.9067 10.4448 10.9971 10.68 10.9971 10.9502L11.002 11.9756C11.002 11.9919 10.9938 12 10.9775 12H10.4111C10.3981 12 10.3916 11.9951 10.3916 11.9854V10.9502C10.3916 10.8298 10.3493 10.7256 10.2646 10.6377C10.18 10.5498 10.0758 10.5059 9.95215 10.5059H9.62256L9.61768 11.9756C9.61768 11.9919 9.61117 12 9.59814 12ZM10.0522 9.11914H9.62256V9.90527H10.0522C10.1548 9.90527 10.2459 9.86702 10.3257 9.79053C10.4071 9.71403 10.4478 9.62044 10.4478 9.50977C10.4478 9.40397 10.4087 9.31283 10.3306 9.23633C10.2524 9.1582 10.1597 9.11914 10.0522 9.11914ZM12.3447 11.9951L11.4487 12C11.4325 12 11.4243 11.9919 11.4243 11.9756L11.4341 8.54053C11.4341 8.52751 11.4406 8.521 11.4536 8.521L12.3887 8.51611C12.5742 8.51123 12.7419 8.55355 12.8916 8.64307C13.043 8.73258 13.1634 8.85384 13.2529 9.00684C13.3441 9.1582 13.3896 9.32585 13.3896 9.50977V10.9453C13.3896 11.1374 13.3433 11.3132 13.2505 11.4727C13.1561 11.6305 13.0308 11.7567 12.8745 11.8511C12.7183 11.9438 12.5417 11.9919 12.3447 11.9951ZM12.3887 9.11426L12.0396 9.11914L12.0347 11.3848H12.3447C12.4684 11.3848 12.5726 11.3416 12.6572 11.2554C12.7419 11.1691 12.7842 11.0658 12.7842 10.9453V9.50488C12.7842 9.39909 12.7451 9.30713 12.667 9.229C12.5889 9.14925 12.4961 9.111 12.3887 9.11426Z" fill="white"/>
<defs>
<linearGradient id="paint0_linear_341_1041" x1="0" y1="4" x2="2" y2="4" gradientUnits="userSpaceOnUse">
<stop stop-color="#BCCDFF"/>
<stop offset="1" stop-color="#2149B9"/>
</linearGradient>
<clipPath id="clip0_341_1041">
<rect width="16" height="12" fill="white" transform="translate(0 2)"/>
</clipPath>
</defs>
</svg>
