<svg width="16" height="16" viewBox="0 0 16 16" fill="none" xmlns="http://www.w3.org/2000/svg">
<rect width="14" height="10" transform="translate(1 3)" fill="#00465C"/>
<path d="M15 13H4.37931H1V4.99982L2.34167 6.02195C3.68378 7.04443 5.45889 7.301 7.0356 6.7004C7.67412 6.45717 8.26791 6.1098 8.79283 5.6724L9.23011 5.30803C10.873 3.93907 13.2206 3.81367 15 4.99982V13Z" fill="white" fill-opacity="0.34"/>
<g clip-path="url(#clip0_276_4206)">
<rect x="0.5" y="2.5" width="15" height="11" rx="0.5" stroke="#ABF8FF"/>
<rect width="2" height="8" transform="translate(1 4)" fill="url(#paint0_linear_276_4206)"/>
</g>
<g clip-path="url(#clip1_276_4206)">
<path d="M9 4C6.79087 4 5 5.79085 5 8C5 10.2091 6.79087 12 9 12C11.2091 12 13 10.2091 13 8C13 5.79085 11.2091 4 9 4ZM7.45177 4.93698C7.38012 5.03623 7.31151 5.14279 7.2465 5.25698C7.1472 5.43141 7.05861 5.61916 6.98096 5.8176C6.81555 5.77206 6.65093 5.72092 6.48734 5.6641C6.76226 5.36857 7.08847 5.12137 7.45177 4.93698ZM6.07278 6.20911C6.30741 6.29717 6.54408 6.37436 6.78234 6.44076C6.68429 6.82915 6.62349 7.24449 6.60295 7.67331H5.58306C5.6336 7.14068 5.80626 6.64312 6.07278 6.20911ZM6.07278 9.79089C5.80624 9.35686 5.63358 8.85932 5.58306 8.32669H6.60295C6.62351 8.75551 6.68429 9.17085 6.78234 9.55924C6.54408 9.62564 6.30741 9.70283 6.07278 9.79089ZM6.48734 10.3359C6.65093 10.2791 6.81555 10.2279 6.98094 10.1824C7.05861 10.3809 7.1472 10.5686 7.2465 10.743C7.31149 10.8572 7.38012 10.9638 7.45177 11.063C7.08847 10.8786 6.76226 10.6314 6.48734 10.3359ZM8.67331 11.263C8.255 11.1061 7.88443 10.6559 7.62613 10.0344C7.97344 9.97028 8.3231 9.93061 8.67331 9.91541V11.263ZM8.67331 9.2606C8.25387 9.27738 7.83512 9.32667 7.41963 9.4081C7.3343 9.07262 7.27793 8.708 7.25727 8.32667H8.67331V9.2606ZM8.67331 7.67331H7.25727C7.27793 7.29198 7.3343 6.92736 7.41963 6.59188C7.8351 6.67333 8.25387 6.72261 8.67331 6.73938V7.67331ZM8.67331 6.08457C8.3231 6.06937 7.97346 6.0297 7.62613 5.9656C7.88443 5.34404 8.255 4.89391 8.67331 4.73701V6.08457ZM11.9272 6.20917C12.1938 6.64316 12.3664 7.1407 12.4169 7.67331H11.397C11.3765 7.24453 11.3157 6.82919 11.2177 6.44084C11.4559 6.37444 11.6926 6.29727 11.9272 6.20917ZM11.5127 5.66416C11.3491 5.72098 11.1845 5.77216 11.0191 5.81768C10.9414 5.6192 10.8528 5.43141 10.7535 5.25696C10.6885 5.14279 10.6199 5.03621 10.5482 4.93696C10.9116 5.12139 11.2378 5.36862 11.5127 5.66416ZM9.32669 4.73703C9.74501 4.89391 10.1156 5.3441 10.3739 5.9657C10.0266 6.02978 9.67692 6.06944 9.32669 6.08462V4.73703ZM9.32669 6.73943C9.74617 6.72267 10.1649 6.6734 10.5804 6.59198C10.6657 6.92745 10.7221 7.29204 10.7427 7.67333H9.32669V6.73943ZM9.32669 8.32669H10.7427C10.7221 8.70798 10.6657 9.07257 10.5804 9.40804C10.1649 9.32661 9.74617 9.27735 9.32669 9.26058V8.32669ZM9.32669 11.263V9.91541C9.67694 9.93061 10.0266 9.97024 10.3739 10.0343C10.1156 10.6559 9.74501 11.1061 9.32669 11.263ZM10.5482 11.063C10.6199 10.9638 10.6885 10.8572 10.7535 10.743C10.8528 10.5686 10.9414 10.3808 11.0191 10.1823C11.1845 10.2279 11.3491 10.279 11.5127 10.3358C11.2378 10.6314 10.9116 10.8786 10.5482 11.063ZM11.9272 9.79085C11.6926 9.70273 11.4559 9.62556 11.2177 9.55914C11.3157 9.17079 11.3765 8.75547 11.397 8.32669H12.4169C12.3664 8.8593 12.1938 9.35684 11.9272 9.79085Z" fill="#6DEEFF"/>
</g>
<defs>
<linearGradient id="paint0_linear_276_4206" x1="0" y1="4" x2="2" y2="4" gradientUnits="userSpaceOnUse">
<stop stop-color="#ABF8FF"/>
<stop offset="1" stop-color="#5799AC"/>
</linearGradient>
<clipPath id="clip0_276_4206">
<rect width="16" height="12" fill="white" transform="translate(0 2)"/>
</clipPath>
<clipPath id="clip1_276_4206">
<rect width="8" height="8" fill="white" transform="translate(5 4)"/>
</clipPath>
</defs>
</svg>
