<svg width="16" height="16" viewBox="0 0 16 16" fill="none" xmlns="http://www.w3.org/2000/svg">
<rect width="14" height="10" transform="translate(1 3)" fill="#000C7A"/>
<path d="M15 13H4.37931H1V4.99982L2.34167 6.02195C3.68378 7.04443 5.45889 7.301 7.0356 6.7004C7.67412 6.45717 8.26791 6.1098 8.79283 5.6724L9.23011 5.30803C10.873 3.93907 13.2206 3.81367 15 4.99982V13Z" fill="#214AB9"/>
<g clip-path="url(#clip0_276_4227)">
<rect x="0.5" y="2.5" width="15" height="11" rx="0.5" stroke="#BCCDFF"/>
<rect width="2" height="8" transform="translate(1 4)" fill="url(#paint0_linear_276_4227)"/>
</g>
<path d="M6.02344 11H5.05469C5.03125 11 5.01823 10.987 5.01562 10.9609L3.91016 5.46484C3.90495 5.44401 3.91536 5.43359 3.94141 5.43359H4.84766C4.86849 5.43359 4.88151 5.44401 4.88672 5.46484L5.54297 9.12891L6.18359 5.46484C6.1888 5.44401 6.20182 5.43359 6.22266 5.43359H7.11719C7.14583 5.43359 7.15625 5.44401 7.14844 5.46484L6.0625 10.9609C6.0599 10.987 6.04688 11 6.02344 11ZM8.92578 11.0781C8.63672 11.0781 8.3763 11.0065 8.14453 10.8633C7.91016 10.7201 7.72135 10.5273 7.57812 10.2852C7.4375 10.043 7.36719 9.77214 7.36719 9.47266V6.9375C7.36719 6.64583 7.4388 6.38021 7.58203 6.14062C7.72266 5.89844 7.91146 5.70573 8.14844 5.5625C8.38542 5.41667 8.64453 5.34375 8.92578 5.34375C9.22005 5.34375 9.48568 5.41406 9.72266 5.55469C9.95964 5.69792 10.1471 5.88932 10.2852 6.12891C10.4258 6.36849 10.4961 6.63802 10.4961 6.9375V7.30469C10.4961 7.32552 10.4831 7.33594 10.457 7.33594H9.55859C9.53776 7.33594 9.52734 7.32552 9.52734 7.30469V7C9.52734 6.79688 9.47005 6.62891 9.35547 6.49609C9.24089 6.36328 9.09766 6.29688 8.92578 6.29688C8.77214 6.29688 8.63542 6.36068 8.51562 6.48828C8.39583 6.61589 8.33594 6.76562 8.33594 6.9375V9.47266C8.33594 9.64714 8.39453 9.79818 8.51172 9.92578C8.62891 10.0508 8.76693 10.1133 8.92578 10.1133C9.09766 10.1133 9.24089 10.0521 9.35547 9.92969C9.47005 9.80469 9.52734 9.65234 9.52734 9.47266V9.07812H8.96875C8.9401 9.07812 8.92578 9.0651 8.92578 9.03906V8.14453C8.92578 8.11849 8.9401 8.10547 8.96875 8.10547H10.4648C10.4857 8.10547 10.4961 8.11849 10.4961 8.14453V9.47266C10.4961 9.77214 10.4258 10.043 10.2852 10.2852C10.1419 10.5273 9.95312 10.7201 9.71875 10.8633C9.48438 11.0065 9.22005 11.0781 8.92578 11.0781ZM10.793 10.9609L11.7852 5.46484C11.7904 5.44401 11.8034 5.43359 11.8242 5.43359H12.9844C13.0052 5.43359 13.0182 5.44401 13.0234 5.46484L13.9766 10.9609C13.9792 10.987 13.9688 11 13.9453 11H13.0586C13.0326 11 13.0182 10.987 13.0156 10.9609L12.9297 10.375H11.8398L11.7539 10.9609C11.7513 10.987 11.7383 11 11.7148 11H10.8242C10.8034 11 10.793 10.987 10.793 10.9609ZM12.4414 7.27344L12.3945 6.97656L12.3594 7.27344L12 9.51953H12.7695L12.4414 7.27344Z" fill="white"/>
<defs>
<linearGradient id="paint0_linear_276_4227" x1="0" y1="4" x2="2" y2="4" gradientUnits="userSpaceOnUse">
<stop stop-color="#BCCDFF"/>
<stop offset="1" stop-color="#2149B9"/>
</linearGradient>
<clipPath id="clip0_276_4227">
<rect width="16" height="12" fill="white" transform="translate(0 2)"/>
</clipPath>
</defs>
</svg>
