<svg width="16" height="16" viewBox="0 0 16 16" fill="none" xmlns="http://www.w3.org/2000/svg">
<rect width="14" height="10" transform="translate(1 3)" fill="#4F0F00" fill-opacity="0.73"/>
<path d="M15 13H4.37931H1V4.99982L2.34167 6.02195C3.68378 7.04443 5.45889 7.301 7.0356 6.7004C7.67412 6.45717 8.26791 6.1098 8.79283 5.6724L9.23011 5.30803C10.873 3.93907 13.2206 3.81367 15 4.99982V13Z" fill="#C25740"/>
<g clip-path="url(#clip0_276_4177)">
<rect x="0.5" y="2.5" width="15" height="11" rx="0.5" stroke="#FFA8A8"/>
<rect width="2" height="8" transform="translate(1 4)" fill="url(#paint0_linear_276_4177)"/>
</g>
<path d="M7.29297 11.0781C7.00391 11.0781 6.73958 11.0052 6.5 10.8594C6.26302 10.7135 6.07422 10.5182 5.93359 10.2734C5.79557 10.026 5.72656 9.7513 5.72656 9.44922L5.73438 6.95312C5.73438 6.65625 5.80208 6.38802 5.9375 6.14844C6.07292 5.90625 6.25911 5.71224 6.49609 5.56641C6.73568 5.41797 7.0013 5.34375 7.29297 5.34375C7.58984 5.34375 7.85417 5.41536 8.08594 5.55859C8.32031 5.70182 8.50651 5.89583 8.64453 6.14062C8.78516 6.38281 8.85547 6.65365 8.85547 6.95312V7.32031C8.85547 7.34115 8.84505 7.35156 8.82422 7.35156H7.92578C7.90495 7.35156 7.89453 7.34115 7.89453 7.32031V6.95312C7.89453 6.77604 7.83724 6.6237 7.72266 6.49609C7.60807 6.36849 7.46484 6.30469 7.29297 6.30469C7.10286 6.30469 6.95703 6.36979 6.85547 6.5C6.75391 6.63021 6.70312 6.78125 6.70312 6.95312V9.44922C6.70312 9.64453 6.76042 9.80469 6.875 9.92969C6.98958 10.0521 7.12891 10.1133 7.29297 10.1133C7.46484 10.1133 7.60807 10.0456 7.72266 9.91016C7.83724 9.77214 7.89453 9.61849 7.89453 9.44922V9.07812C7.89453 9.05729 7.90495 9.04688 7.92578 9.04688H8.83203C8.85286 9.04688 8.86328 9.05729 8.86328 9.07812V9.44922C8.86328 9.7487 8.79297 10.0221 8.65234 10.2695C8.50911 10.5143 8.32031 10.7109 8.08594 10.8594C7.85156 11.0052 7.58724 11.0781 7.29297 11.0781ZM10.3828 11H9.48438C9.45833 11 9.44531 10.987 9.44531 10.9609L9.46094 5.46484C9.46094 5.44401 9.47135 5.43359 9.49219 5.43359H12.0547C12.0807 5.43359 12.0938 5.44401 12.0938 5.46484V6.36719C12.0938 6.38802 12.0833 6.39844 12.0625 6.39844H10.4219V7.64062H12.0625C12.0833 7.64062 12.0938 7.65365 12.0938 7.67969L12.1016 8.58594C12.1016 8.60677 12.0885 8.61719 12.0625 8.61719H10.4219V10.9609C10.4219 10.987 10.4089 11 10.3828 11Z" fill="white"/>
<defs>
<linearGradient id="paint0_linear_276_4177" x1="0" y1="4" x2="2" y2="4" gradientUnits="userSpaceOnUse">
<stop stop-color="#FFA8A8"/>
<stop offset="1" stop-color="#C25740"/>
</linearGradient>
<clipPath id="clip0_276_4177">
<rect width="16" height="12" fill="white" transform="translate(0 2)"/>
</clipPath>
</defs>
</svg>
