<svg width="16" height="16" viewBox="0 0 16 16" fill="none" xmlns="http://www.w3.org/2000/svg">
<rect width="14" height="10" transform="translate(1 3)" fill="#555210" fill-opacity="0.76"/>
<path d="M15 13H4.37931H1V4.99982L2.34167 6.02195C3.68378 7.04443 5.45889 7.301 7.0356 6.7004C7.67412 6.45717 8.26791 6.1098 8.79283 5.6724L9.23011 5.30803C10.873 3.93907 13.2206 3.81367 15 4.99982V13Z" fill="#987700" fill-opacity="0.35"/>
<g clip-path="url(#clip0_277_4257)">
<rect x="0.5" y="2.5" width="15" height="11" rx="0.5" stroke="#D0BE00"/>
<rect width="2" height="8" transform="translate(1 4)" fill="url(#paint0_linear_277_4257)"/>
</g>
<path d="M8.91139 5.46121C10.5485 5.47727 11.5742 5.37541 11.7127 7.19002H13.7091C13.7091 4.37891 11.2574 4 8.85942 4C6.46124 4 4.00977 4.37891 4.00977 7.19002H5.99068C6.14394 5.34083 7.28785 5.44534 8.91139 5.46121Z" fill="#FFEF43"/>
<path d="M4.9999 8.09405C5.48615 8.09405 5.89077 8.12316 5.98072 7.64484C5.99282 7.57983 5.99981 7.50613 5.99981 7.4209H5.97675H4C4 8.13242 4.4477 8.09405 4.9999 8.09405Z" fill="#FFEF43"/>
<path d="M11.7257 7.4209H11.707C11.707 7.5067 11.7144 7.58059 11.7282 7.64484C11.8231 8.08593 12.2271 8.05852 12.7117 8.05852C13.2665 8.05852 13.7163 8.095 13.7163 7.4209H11.7257Z" fill="#FFEF43"/>
<path d="M10.7494 6.93661V6.6539C10.7494 6.52747 10.6036 6.51953 10.4237 6.51953H10.1299C9.95015 6.51953 9.80444 6.52747 9.80444 6.6539V6.8975V7.08648H7.72564V6.8975V6.6539C7.72564 6.52747 7.57994 6.51953 7.40021 6.51953H7.10616C6.92644 6.51953 6.78073 6.52747 6.78073 6.6539V6.93661V7.18343C6.30714 7.67553 4.75749 9.7704 4.70117 10.024L4.70193 11.7163C4.70193 11.8726 4.82911 11.9998 4.9854 11.9998H12.5447C12.701 11.9998 12.8282 11.8726 12.8282 11.7163V10.0155C12.7724 9.76927 11.2231 7.67535 10.7494 7.18324V6.93661ZM7.62321 10.2517C7.47108 10.2517 7.34768 10.1285 7.34768 9.9762C7.34768 9.82388 7.47108 9.70067 7.62321 9.70067C7.77534 9.70067 7.89875 9.82388 7.89875 9.9762C7.89875 10.1285 7.77534 10.2517 7.62321 10.2517ZM7.62321 9.30683C7.47108 9.30683 7.34768 9.18361 7.34768 9.03129C7.34768 8.87897 7.47108 8.75576 7.62321 8.75576C7.77534 8.75576 7.89875 8.87897 7.89875 9.03129C7.89875 9.18361 7.77534 9.30683 7.62321 9.30683ZM7.62321 8.36211C7.47108 8.36211 7.34768 8.23889 7.34768 8.08657C7.34768 7.93444 7.47108 7.81103 7.62321 7.81103C7.77534 7.81103 7.89875 7.93444 7.89875 8.08657C7.89875 8.23889 7.77534 8.36211 7.62321 8.36211ZM8.75711 10.2517C8.60497 10.2517 8.48157 10.1285 8.48157 9.9762C8.48157 9.82388 8.60497 9.70067 8.75711 9.70067C8.90942 9.70067 9.03264 9.82388 9.03264 9.9762C9.03264 10.1285 8.90942 10.2517 8.75711 10.2517ZM8.75711 9.30683C8.60497 9.30683 8.48157 9.18361 8.48157 9.03129C8.48157 8.87897 8.60497 8.75576 8.75711 8.75576C8.90942 8.75576 9.03264 8.87897 9.03264 9.03129C9.03264 9.18361 8.90942 9.30683 8.75711 9.30683ZM8.75711 8.36211C8.60497 8.36211 8.48157 8.23889 8.48157 8.08657C8.48157 7.93444 8.60497 7.81103 8.75711 7.81103C8.90942 7.81103 9.03264 7.93444 9.03264 8.08657C9.03264 8.23889 8.90942 8.36211 8.75711 8.36211ZM9.891 10.2517C9.73868 10.2517 9.61546 10.1285 9.61546 9.9762C9.61546 9.82388 9.73868 9.70067 9.891 9.70067C10.0433 9.70067 10.1665 9.82388 10.1665 9.9762C10.1665 10.1285 10.0433 10.2517 9.891 10.2517ZM9.891 9.30683C9.73868 9.30683 9.61546 9.18361 9.61546 9.03129C9.61546 8.87897 9.73868 8.75576 9.891 8.75576C10.0433 8.75576 10.1665 8.87897 10.1665 9.03129C10.1665 9.18361 10.0433 9.30683 9.891 9.30683ZM9.891 8.36211C9.73868 8.36211 9.61546 8.23889 9.61546 8.08657C9.61546 7.93444 9.73868 7.81103 9.891 7.81103C10.0433 7.81103 10.1665 7.93444 10.1665 8.08657C10.1665 8.23889 10.0433 8.36211 9.891 8.36211Z" fill="#FFEF43"/>
<defs>
<linearGradient id="paint0_linear_277_4257" x1="0" y1="4" x2="2" y2="4" gradientUnits="userSpaceOnUse">
<stop stop-color="#D0BE00"/>
<stop offset="1" stop-color="#5F5208"/>
</linearGradient>
<clipPath id="clip0_277_4257">
<rect width="16" height="12" fill="white" transform="translate(0 2)"/>
</clipPath>
</defs>
</svg>
