<svg width="16" height="16" viewBox="0 0 16 16" fill="none" xmlns="http://www.w3.org/2000/svg">
<rect width="14" height="10" transform="translate(1 3)" fill="#FF6200" fill-opacity="0.42"/>
<path d="M15 13H4.37931H1V4.99982L2.34167 6.02195C3.68378 7.04443 5.45889 7.301 7.0356 6.7004C7.67412 6.45717 8.26791 6.1098 8.79283 5.6724L9.23011 5.30803C10.873 3.93907 13.2206 3.81367 15 4.99982V13Z" fill="#DA700D"/>
<g clip-path="url(#clip0_276_4245)">
<rect x="0.5" y="2.5" width="15" height="11" rx="0.5" stroke="#FFA048"/>
<rect width="2" height="8" transform="translate(1 4)" fill="url(#paint0_linear_276_4245)"/>
</g>
<path d="M5 11.0781C4.71094 11.0781 4.44661 11.0052 4.20703 10.8594C3.97005 10.7135 3.78125 10.5182 3.64062 10.2734C3.5026 10.026 3.43359 9.7513 3.43359 9.44922L3.44141 6.95312C3.44141 6.65625 3.50911 6.38802 3.64453 6.14844C3.77995 5.90625 3.96615 5.71224 4.20312 5.56641C4.44271 5.41797 4.70833 5.34375 5 5.34375C5.29688 5.34375 5.5612 5.41536 5.79297 5.55859C6.02734 5.70182 6.21354 5.89583 6.35156 6.14062C6.49219 6.38281 6.5625 6.65365 6.5625 6.95312V7.32031C6.5625 7.34115 6.55208 7.35156 6.53125 7.35156H5.63281C5.61198 7.35156 5.60156 7.34115 5.60156 7.32031V6.95312C5.60156 6.77604 5.54427 6.6237 5.42969 6.49609C5.3151 6.36849 5.17188 6.30469 5 6.30469C4.8099 6.30469 4.66406 6.36979 4.5625 6.5C4.46094 6.63021 4.41016 6.78125 4.41016 6.95312V9.44922C4.41016 9.64453 4.46745 9.80469 4.58203 9.92969C4.69661 10.0521 4.83594 10.1133 5 10.1133C5.17188 10.1133 5.3151 10.0456 5.42969 9.91016C5.54427 9.77214 5.60156 9.61849 5.60156 9.44922V9.07812C5.60156 9.05729 5.61198 9.04688 5.63281 9.04688H6.53906C6.5599 9.04688 6.57031 9.05729 6.57031 9.07812V9.44922C6.57031 9.7487 6.5 10.0221 6.35938 10.2695C6.21615 10.5143 6.02734 10.7109 5.79297 10.8594C5.55859 11.0052 5.29427 11.0781 5 11.0781ZM8.63281 11.0781C8.34896 11.0781 8.08724 11.0052 7.84766 10.8594C7.61068 10.7135 7.41927 10.5195 7.27344 10.2773C7.13021 10.0326 7.05859 9.76432 7.05859 9.47266L7.06641 6.9375C7.06641 6.64062 7.13802 6.3737 7.28125 6.13672C7.42188 5.89714 7.61198 5.70573 7.85156 5.5625C8.09115 5.41667 8.35156 5.34375 8.63281 5.34375C8.92448 5.34375 9.1862 5.41536 9.41797 5.55859C9.65234 5.70182 9.83984 5.89453 9.98047 6.13672C10.1237 6.3763 10.1953 6.64323 10.1953 6.9375L10.2031 9.47266C10.2031 9.76432 10.1328 10.0312 9.99219 10.2734C9.84896 10.5182 9.65885 10.7135 9.42188 10.8594C9.1849 11.0052 8.92188 11.0781 8.63281 11.0781ZM8.63281 10.1133C8.79427 10.1133 8.9349 10.0482 9.05469 9.91797C9.17448 9.78516 9.23438 9.63672 9.23438 9.47266L9.22656 6.9375C9.22656 6.76042 9.17057 6.61068 9.05859 6.48828C8.94661 6.36589 8.80469 6.30469 8.63281 6.30469C8.46875 6.30469 8.32812 6.36458 8.21094 6.48438C8.09375 6.60417 8.03516 6.75521 8.03516 6.9375V9.47266C8.03516 9.64714 8.09375 9.79818 8.21094 9.92578C8.32812 10.0508 8.46875 10.1133 8.63281 10.1133ZM11.7461 11H10.8398C10.819 11 10.8086 10.987 10.8086 10.9609L10.8242 5.46484C10.8242 5.44401 10.8346 5.43359 10.8555 5.43359H11.832C11.8529 5.43359 11.8711 5.44401 11.8867 5.46484L12.6172 6.51953L13.3438 5.46484C13.3594 5.44401 13.3789 5.43359 13.4023 5.43359H14.3828C14.4062 5.43359 14.418 5.44401 14.418 5.46484L14.4336 10.9609C14.4336 10.987 14.4232 11 14.4023 11H13.4961C13.4753 11 13.4648 10.987 13.4648 10.9609L13.457 6.87891L12.6172 8.09766L11.7852 6.87891L11.7773 10.9609C11.7773 10.987 11.7669 11 11.7461 11Z" fill="white"/>
<defs>
<linearGradient id="paint0_linear_276_4245" x1="0" y1="4" x2="2" y2="4" gradientUnits="userSpaceOnUse">
<stop stop-color="#FFA048"/>
<stop offset="1" stop-color="#DA700D"/>
</linearGradient>
<clipPath id="clip0_276_4245">
<rect width="16" height="12" fill="white" transform="translate(0 2)"/>
</clipPath>
</defs>
</svg>
