<svg width="16" height="16" viewBox="0 0 16 16" fill="none" xmlns="http://www.w3.org/2000/svg">
<path d="M8 2.90039C10.8166 2.90039 13.0996 5.18334 13.0996 8C13.0996 10.8167 10.8166 13.0996 8 13.0996C5.18336 13.0996 2.90039 10.8167 2.90039 8C2.90039 5.18334 5.18336 2.90039 8 2.90039ZM7.49121 10.5C7.13537 10.5195 6.78024 10.5598 6.42676 10.6201C6.71007 11.2541 7.08367 11.7119 7.49121 11.9229V10.5ZM8.50879 11.9229C8.91624 11.712 9.28898 11.2539 9.57227 10.6201C9.21912 10.5599 8.86435 10.5194 8.50879 10.5V11.9229ZM5.41895 10.8486C5.29294 10.8845 5.16718 10.9226 5.04199 10.9639C5.25867 11.1801 5.49842 11.3731 5.75781 11.5381C5.74608 11.5182 5.73323 11.4988 5.72168 11.4785C5.60927 11.2811 5.50929 11.0696 5.41895 10.8486ZM10.5801 10.8486C10.4898 11.0695 10.3907 11.2812 10.2783 11.4785C10.2667 11.4989 10.253 11.518 10.2412 11.5381C10.5007 11.3731 10.7403 11.1801 10.957 10.9639C10.8318 10.9227 10.7061 10.8845 10.5801 10.8486ZM3.8418 8.50879C3.91238 9.08932 4.10105 9.63344 4.38477 10.1162C4.62468 10.0283 4.86642 9.94994 5.10938 9.87988C5.00549 9.44393 4.93824 8.98322 4.91016 8.50879H3.8418ZM11.0898 8.50879C11.0618 8.9833 10.9936 9.44388 10.8896 9.87988C11.1326 9.94993 11.3743 10.0282 11.6143 10.1162C11.8981 9.63335 12.0876 9.08949 12.1582 8.50879H11.0898ZM5.92969 8.50879C5.95701 8.90674 6.01555 9.28834 6.10059 9.64453C6.56182 9.55853 7.02601 9.50346 7.49121 9.48047V8.50879H5.92969ZM8.50879 9.48047C8.9737 9.50344 9.43755 9.55863 9.89844 9.64453C9.98351 9.28828 10.043 8.90682 10.0703 8.50879H8.50879V9.48047ZM11.6143 5.88281C11.3743 5.97078 11.1326 6.0491 10.8896 6.11914C10.9937 6.55539 11.0608 7.01639 11.0889 7.49121H12.1582C12.0876 6.91021 11.8983 6.36584 11.6143 5.88281ZM9.89844 6.35449C9.43751 6.44039 8.97375 6.4956 8.50879 6.51855V7.49121H10.0703C10.043 7.09283 9.98363 6.71101 9.89844 6.35449ZM6.10059 6.35449C6.01544 6.71094 5.95703 7.09291 5.92969 7.49121H7.49121V6.51855C7.02597 6.49556 6.56184 6.44053 6.10059 6.35449ZM4.38477 5.88281C4.10083 6.36574 3.91244 6.91039 3.8418 7.49121H4.91016C4.93824 7.01644 5.00536 6.55536 5.10938 6.11914C4.8664 6.04908 4.6247 5.97077 4.38477 5.88281ZM7.49121 4.07617C7.08369 4.28694 6.71011 4.74512 6.42676 5.37891C6.78029 5.43924 7.13533 5.47956 7.49121 5.49902V4.07617ZM8.50879 5.49902C8.86437 5.4796 9.21906 5.43912 9.57227 5.37891C9.28893 4.74531 8.91621 4.28688 8.50879 4.07617V5.49902ZM5.75781 4.46094C5.49845 4.62589 5.25866 4.81895 5.04199 5.03516C5.16718 5.07638 5.29291 5.11447 5.41895 5.15039C5.50919 4.92971 5.60942 4.71867 5.72168 4.52148C5.73337 4.50096 5.74594 4.48109 5.75781 4.46094ZM10.2783 4.52148C10.3905 4.71857 10.4899 4.92983 10.5801 5.15039C10.7061 5.11449 10.8318 5.07638 10.957 5.03516C10.7403 4.81896 10.5006 4.62588 10.2412 4.46094C10.2532 4.48123 10.2665 4.50081 10.2783 4.52148Z" fill="url(#paint0_linear_363_1257)" stroke="#11707C" stroke-width="0.2"/>
<path d="M3.53711 3.46387H4.75V7.39258H3.375V6.11719C3.1796 6.65481 3.07617 7.2269 3.07617 7.80957C3.0762 10.5764 5.29443 12.7976 8.05664 12.7979C8.78383 12.7979 9.46102 12.6614 10.1387 12.3447L10.3701 12.2373L10.4727 12.4697L10.8535 13.3271L10.9531 13.5508L10.7314 13.6543C9.88931 14.0511 8.9966 14.25 8.05664 14.25C4.49455 14.2498 1.62502 11.3757 1.625 7.80957C1.625 6.74798 1.89212 5.73248 2.37793 4.82129H0.75V3.46387H3.33105L3.41992 3.3623L3.53711 3.46387ZM7.94336 1.75C11.5055 1.75023 14.375 4.62427 14.375 8.19043C14.375 9.22353 14.1066 10.2539 13.6172 11.1787H15.25V12.5361H12.6689L12.5801 12.6377L12.4629 12.5361H11.25V8.60742H12.625V9.88184C12.8202 9.34446 12.9238 8.77279 12.9238 8.19043C12.9238 5.42358 10.7056 3.20238 7.94336 3.20215C7.21617 3.20215 6.53898 3.3386 5.86133 3.65527L5.62988 3.7627L5.52734 3.53027L5.14648 2.67285L5.04688 2.44922L5.26855 2.3457C6.11069 1.94887 7.0034 1.75 7.94336 1.75Z" fill="#50FF44" stroke="#11707C" stroke-width="0.5"/>
<defs>
<linearGradient id="paint0_linear_363_1257" x1="8" y1="3" x2="8" y2="13" gradientUnits="userSpaceOnUse">
<stop stop-color="#00E1FF"/>
<stop offset="1" stop-color="#5A99A1"/>
</linearGradient>
</defs>
</svg>
