<svg width="16" height="16" viewBox="0 0 16 16" fill="none" xmlns="http://www.w3.org/2000/svg">
<path d="M0.928686 4.85777C0.705471 3.63009 1.64862 2.5 2.89643 2.5H13.1036C14.3514 2.5 15.2945 3.63009 15.0713 4.85777L13.7986 11.8578C13.6257 12.8087 12.7974 13.5 11.8308 13.5H4.16915C3.20258 13.5 2.37432 12.8088 2.20141 11.8578L0.928686 4.85777Z" fill="#585858" fill-opacity="0.44"/>
<path d="M13.5 13H4.37931H2.5L1 4.99982L2.34167 6.02195C3.68378 7.04443 5.45889 7.301 7.0356 6.7004C7.67412 6.45717 8.26791 6.1098 8.79283 5.6724L9.23011 5.30803C10.873 3.93907 13.2206 3.81367 15 4.99982L13.5 13Z" fill="#585858" fill-opacity="0.44"/>
<g clip-path="url(#clip0_331_1187)">
<path d="M13.1036 2.5H2.89643C1.64862 2.5 0.705471 3.63009 0.928686 4.85777L2.20141 11.8578C2.37432 12.8088 3.20258 13.5 4.16915 13.5H11.8308C12.7974 13.5 13.6257 12.8088 13.7986 11.8578L15.0713 4.85777C15.2945 3.63009 14.3514 2.5 13.1036 2.5Z" stroke="#C4C4C4"/>
</g>
<path d="M4 11.0781C3.71094 11.0781 3.44661 11.0052 3.20703 10.8594C2.97005 10.7135 2.78125 10.5182 2.64062 10.2734C2.5026 10.026 2.43359 9.7513 2.43359 9.44922L2.44141 6.95312C2.44141 6.65625 2.50911 6.38802 2.64453 6.14844C2.77995 5.90625 2.96615 5.71224 3.20312 5.56641C3.44271 5.41797 3.70833 5.34375 4 5.34375C4.29688 5.34375 4.5612 5.41536 4.79297 5.55859C5.02734 5.70182 5.21354 5.89583 5.35156 6.14062C5.49219 6.38281 5.5625 6.65365 5.5625 6.95312V7.32031C5.5625 7.34115 5.55208 7.35156 5.53125 7.35156H4.63281C4.61198 7.35156 4.60156 7.34115 4.60156 7.32031V6.95312C4.60156 6.77604 4.54427 6.6237 4.42969 6.49609C4.3151 6.36849 4.17188 6.30469 4 6.30469C3.8099 6.30469 3.66406 6.36979 3.5625 6.5C3.46094 6.63021 3.41016 6.78125 3.41016 6.95312V9.44922C3.41016 9.64453 3.46745 9.80469 3.58203 9.92969C3.69661 10.0521 3.83594 10.1133 4 10.1133C4.17188 10.1133 4.3151 10.0456 4.42969 9.91016C4.54427 9.77214 4.60156 9.61849 4.60156 9.44922V9.07812C4.60156 9.05729 4.61198 9.04688 4.63281 9.04688H5.53906C5.5599 9.04688 5.57031 9.05729 5.57031 9.07812V9.44922C5.57031 9.7487 5.5 10.0221 5.35938 10.2695C5.21615 10.5143 5.02734 10.7109 4.79297 10.8594C4.55859 11.0052 4.29427 11.0781 4 11.0781ZM7.63281 11.0781C7.34896 11.0781 7.08724 11.0052 6.84766 10.8594C6.61068 10.7135 6.41927 10.5195 6.27344 10.2773C6.13021 10.0326 6.05859 9.76432 6.05859 9.47266L6.06641 6.9375C6.06641 6.64062 6.13802 6.3737 6.28125 6.13672C6.42188 5.89714 6.61198 5.70573 6.85156 5.5625C7.09115 5.41667 7.35156 5.34375 7.63281 5.34375C7.92448 5.34375 8.1862 5.41536 8.41797 5.55859C8.65234 5.70182 8.83984 5.89453 8.98047 6.13672C9.1237 6.3763 9.19531 6.64323 9.19531 6.9375L9.20312 9.47266C9.20312 9.76432 9.13281 10.0312 8.99219 10.2734C8.84896 10.5182 8.65885 10.7135 8.42188 10.8594C8.1849 11.0052 7.92188 11.0781 7.63281 11.0781ZM7.63281 10.1133C7.79427 10.1133 7.9349 10.0482 8.05469 9.91797C8.17448 9.78516 8.23438 9.63672 8.23438 9.47266L8.22656 6.9375C8.22656 6.76042 8.17057 6.61068 8.05859 6.48828C7.94661 6.36589 7.80469 6.30469 7.63281 6.30469C7.46875 6.30469 7.32812 6.36458 7.21094 6.48438C7.09375 6.60417 7.03516 6.75521 7.03516 6.9375V9.47266C7.03516 9.64714 7.09375 9.79818 7.21094 9.92578C7.32812 10.0508 7.46875 10.1133 7.63281 10.1133ZM10.7461 11H9.83984C9.81901 11 9.80859 10.987 9.80859 10.9609L9.82422 5.46484C9.82422 5.44401 9.83464 5.43359 9.85547 5.43359H10.832C10.8529 5.43359 10.8711 5.44401 10.8867 5.46484L11.6172 6.51953L12.3438 5.46484C12.3594 5.44401 12.3789 5.43359 12.4023 5.43359H13.3828C13.4062 5.43359 13.418 5.44401 13.418 5.46484L13.4336 10.9609C13.4336 10.987 13.4232 11 13.4023 11H12.4961C12.4753 11 12.4648 10.987 12.4648 10.9609L12.457 6.87891L11.6172 8.09766L10.7852 6.87891L10.7773 10.9609C10.7773 10.987 10.7669 11 10.7461 11Z" fill="#FDFDFD"/>
<defs>
<clipPath id="clip0_331_1187">
<rect width="16" height="12" fill="white" transform="translate(0 2)"/>
</clipPath>
</defs>
</svg>
