<svg width="16" height="16" viewBox="0 0 16 16" fill="none" xmlns="http://www.w3.org/2000/svg">
<path d="M0.928686 4.85777C0.705471 3.63009 1.64862 2.5 2.89643 2.5H13.1036C14.3514 2.5 15.2945 3.63009 15.0713 4.85777L13.7986 11.8578C13.6257 12.8088 12.7974 13.5 11.8308 13.5H4.16915C3.20258 13.5 2.37432 12.8088 2.20141 11.8578L0.928686 4.85777Z" fill="#5F5208"/>
<path d="M13.5 13H4.37931H2.5L1 4.99982L2.34167 6.02195C3.68378 7.04443 5.45889 7.301 7.0356 6.7004C7.67412 6.45717 8.26791 6.1098 8.79283 5.6724L9.23011 5.30803C10.873 3.93907 13.2206 3.81367 15 4.99982L13.5 13Z" fill="#5F5208"/>
<g clip-path="url(#clip0_331_1196)">
<path d="M13.1036 2.5H2.89643C1.64862 2.5 0.705471 3.63009 0.928686 4.85777L2.20141 11.8578C2.37432 12.8088 3.20258 13.5 4.16915 13.5H11.8308C12.7974 13.5 13.6257 12.8088 13.7986 11.8578L15.0713 4.85777C15.2945 3.63009 14.3514 2.5 13.1036 2.5Z" stroke="#D0BE00"/>
<path d="M8.05452 5.50388C9.73947 5.52041 10.795 5.41557 10.9376 7.28316H12.9923C12.9923 4.38997 10.469 4 8.00103 4C5.53282 4 3.00977 4.38997 3.00977 7.28316H5.04852C5.20626 5.37998 6.38357 5.48754 8.05452 5.50388Z" fill="#FFEF43"/>
<path d="M4.0291 8.21429C4.52955 8.21429 4.94598 8.24425 5.03856 7.75197C5.05101 7.68506 5.0582 7.6092 5.0582 7.52148H5.03447H3C3 8.25378 3.46077 8.21429 4.0291 8.21429Z" fill="#FFEF43"/>
<path d="M10.9509 7.52148H10.9316C10.9316 7.60979 10.9392 7.68584 10.9534 7.75197C11.0511 8.20593 11.4669 8.17773 11.9656 8.17773C12.5367 8.17773 12.9996 8.21527 12.9996 7.52148H10.9509Z" fill="#FFEF43"/>
<path d="M9.94549 7.02301V6.73204C9.94549 6.60192 9.79553 6.59375 9.61037 6.59375H9.30792C9.12295 6.59375 8.97299 6.60192 8.97299 6.73204V6.98275V7.17725H6.83349V6.98275V6.73204C6.83349 6.60192 6.68353 6.59375 6.49856 6.59375H6.19591C6.01094 6.59375 5.86098 6.60192 5.86098 6.73204V7.02301V7.27703C5.37357 7.78351 3.77866 9.93954 3.7207 10.2006L3.72148 11.9423C3.72148 12.1032 3.85238 12.2341 4.01323 12.2341H11.7932C11.9541 12.2341 12.085 12.1032 12.085 11.9423V10.1918C12.0276 9.93838 10.4331 7.78331 9.94549 7.27683V7.02301ZM6.72807 10.4349C6.57149 10.4349 6.44448 10.3081 6.44448 10.1514C6.44448 9.99459 6.57149 9.86777 6.72807 9.86777C6.88464 9.86777 7.01165 9.99459 7.01165 10.1514C7.01165 10.3081 6.88464 10.4349 6.72807 10.4349ZM6.72807 9.46243C6.57149 9.46243 6.44448 9.33562 6.44448 9.17885C6.44448 9.02209 6.57149 8.89527 6.72807 8.89527C6.88464 8.89527 7.01165 9.02209 7.01165 9.17885C7.01165 9.33562 6.88464 9.46243 6.72807 9.46243ZM6.72807 8.49013C6.57149 8.49013 6.44448 8.36331 6.44448 8.20655C6.44448 8.04997 6.57149 7.92296 6.72807 7.92296C6.88464 7.92296 7.01165 8.04997 7.01165 8.20655C7.01165 8.36331 6.88464 8.49013 6.72807 8.49013ZM7.89507 10.4349C7.7385 10.4349 7.61149 10.3081 7.61149 10.1514C7.61149 9.99459 7.7385 9.86777 7.89507 9.86777C8.05184 9.86777 8.17865 9.99459 8.17865 10.1514C8.17865 10.3081 8.05184 10.4349 7.89507 10.4349ZM7.89507 9.46243C7.7385 9.46243 7.61149 9.33562 7.61149 9.17885C7.61149 9.02209 7.7385 8.89527 7.89507 8.89527C8.05184 8.89527 8.17865 9.02209 8.17865 9.17885C8.17865 9.33562 8.05184 9.46243 7.89507 9.46243ZM7.89507 8.49013C7.7385 8.49013 7.61149 8.36331 7.61149 8.20655C7.61149 8.04997 7.7385 7.92296 7.89507 7.92296C8.05184 7.92296 8.17865 8.04997 8.17865 8.20655C8.17865 8.36331 8.05184 8.49013 7.89507 8.49013ZM9.06207 10.4349C8.9053 10.4349 8.77849 10.3081 8.77849 10.1514C8.77849 9.99459 8.9053 9.86777 9.06207 9.86777C9.21884 9.86777 9.34565 9.99459 9.34565 10.1514C9.34565 10.3081 9.21884 10.4349 9.06207 10.4349ZM9.06207 9.46243C8.9053 9.46243 8.77849 9.33562 8.77849 9.17885C8.77849 9.02209 8.9053 8.89527 9.06207 8.89527C9.21884 8.89527 9.34565 9.02209 9.34565 9.17885C9.34565 9.33562 9.21884 9.46243 9.06207 9.46243ZM9.06207 8.49013C8.9053 8.49013 8.77849 8.36331 8.77849 8.20655C8.77849 8.04997 8.9053 7.92296 9.06207 7.92296C9.21884 7.92296 9.34565 8.04997 9.34565 8.20655C9.34565 8.36331 9.21884 8.49013 9.06207 8.49013Z" fill="#FFEF43"/>
</g>
<defs>
<clipPath id="clip0_331_1196">
<rect width="16" height="12" fill="white" transform="translate(0 2)"/>
</clipPath>
</defs>
</svg>
