<svg width="16" height="16" viewBox="0 0 16 16" fill="none" xmlns="http://www.w3.org/2000/svg">
<path d="M3.81053 12.1939C3.87302 12.2558 3.92261 12.3296 3.95646 12.4108C3.99031 12.4921 4.00773 12.5792 4.00773 12.6672C4.00773 12.7552 3.99031 12.8423 3.95646 12.9236C3.92261 13.0048 3.87302 13.0786 3.81053 13.1405L3.14387 13.8072C3.08189 13.8697 3.00816 13.9193 2.92692 13.9531C2.84568 13.987 2.75854 14.0044 2.67053 14.0044C2.58252 14.0044 2.49539 13.987 2.41415 13.9531C2.33291 13.9193 2.25917 13.8697 2.1972 13.8072C2.13471 13.7452 2.08512 13.6715 2.05127 13.5902C2.01743 13.509 2 13.4219 2 13.3339C2 13.2459 2.01743 13.1587 2.05127 13.0775C2.08512 12.9962 2.13471 12.9225 2.1972 12.8605L2.86387 12.1939C2.92584 12.1314 2.99957 12.0818 3.08081 12.0479C3.16205 12.0141 3.24919 11.9967 3.3372 11.9967C3.42521 11.9967 3.51234 12.0141 3.59358 12.0479C3.67482 12.0818 3.74856 12.1314 3.81053 12.1939ZM13.8105 3.14053L12.8639 2.19386C12.739 2.06969 12.57 2 12.3939 2C12.2177 2 12.0488 2.06969 11.9239 2.19386L10.9772 3.14053C10.854 3.2647 10.7846 3.4323 10.7839 3.6072C10.7834 3.69493 10.8002 3.78191 10.8334 3.86313C10.8665 3.94436 10.9154 4.01824 10.9772 4.08053L11.9239 5.0272C12.0488 5.15136 12.2177 5.22106 12.3939 5.22106C12.57 5.22106 12.739 5.15136 12.8639 5.0272L13.8105 4.08053C13.9347 3.95562 14.0044 3.78665 14.0044 3.61053C14.0044 3.4344 13.9347 3.26544 13.8105 3.14053Z" fill="#A9A9A9"/>
<path d="M11.6374 2.47511L13.5241 4.36178C13.6482 4.48669 13.7179 4.65565 13.7179 4.83178C13.7179 5.0079 13.6482 5.17687 13.5241 5.30178L5.69073 13.1418C5.56297 13.2636 5.39391 13.3327 5.2174 13.3351H3.33073C3.15392 13.3351 2.98435 13.2649 2.85932 13.1399C2.7343 13.0148 2.66406 12.8453 2.66406 12.6684V10.7818C2.66652 10.6053 2.73557 10.4362 2.8574 10.3084L10.6974 2.47511C10.8223 2.35094 10.9913 2.28125 11.1674 2.28125C11.3435 2.28125 11.5125 2.35094 11.6374 2.47511Z" fill="url(#paint0_linear_336_2052)"/>
<defs>
<linearGradient id="paint0_linear_336_2052" x1="8.19099" y1="2.28125" x2="8.19099" y2="13.3351" gradientUnits="userSpaceOnUse">
<stop stop-color="#6CE6B5"/>
<stop offset="1" stop-color="#417B64"/>
</linearGradient>
</defs>
</svg>
