<svg width="16" height="16" viewBox="0 0 16 16" fill="none" xmlns="http://www.w3.org/2000/svg">
<rect x="1" y="3" width="14" height="10" rx="2" fill="black"/>
<rect x="0.5" y="2.5" width="15" height="11" rx="2.5" stroke="#444444"/>
<path d="M8.02919 7.9709C7.64804 7.58959 7.38847 7.10385 7.28328 6.57506C7.17808 6.04627 7.23199 5.49816 7.43818 5C6.85028 5.11574 6.31027 5.40421 5.8872 5.82853C4.70427 7.0115 4.70427 8.92969 5.8872 10.1127C7.07043 11.2959 8.98826 11.2956 10.1715 10.1127C10.5957 9.68962 10.8841 9.14971 11 8.56193C10.5018 8.76809 9.95377 8.82198 9.425 8.71678C8.89624 8.61159 8.41052 8.35203 8.02919 7.9709Z" fill="url(#paint0_linear_347_1185)"/>
<rect x="1" y="3" width="14" height="10" rx="2" fill="url(#paint1_radial_347_1185)"/>
<defs>
<linearGradient id="paint0_linear_347_1185" x1="6.65233" y1="5" x2="9.79191" y2="10.9485" gradientUnits="userSpaceOnUse">
<stop stop-color="#FFD84C"/>
<stop offset="1" stop-color="#99471F"/>
</linearGradient>
<radialGradient id="paint1_radial_347_1185" cx="0" cy="0" r="1" gradientUnits="userSpaceOnUse" gradientTransform="translate(5.5 4) rotate(57.2648) scale(8.32166 11.6503)">
<stop stop-color="white" stop-opacity="0.25"/>
<stop offset="0.548077" stop-color="white" stop-opacity="0.15"/>
<stop offset="0.56" stop-color="white" stop-opacity="0.14"/>
<stop offset="1" stop-color="white" stop-opacity="0"/>
</radialGradient>
</defs>
</svg>
