<svg width="16" height="16" viewBox="0 0 16 16" fill="none" xmlns="http://www.w3.org/2000/svg">
<rect x="2.5" y="2.5" width="13" height="11" rx="0.5" fill="#141414" fill-opacity="0.45"/>
<rect x="2.5" y="2.5" width="13" height="11" rx="0.5" stroke="#C4C4C4"/>
<rect width="2" height="6" transform="translate(0 5)" fill="#C4C4C4"/>
<rect x="1" y="6" width="1" height="1" fill="black"/>
<rect x="1" y="9" width="1" height="1" fill="black"/>
<path d="M5.35156 11.0781C5.07031 11.0781 4.8099 11.0052 4.57031 10.8594C4.33073 10.7135 4.13932 10.5182 3.99609 10.2734C3.85547 10.026 3.78516 9.75651 3.78516 9.46484L3.80078 5.46484C3.80078 5.44401 3.8112 5.43359 3.83203 5.43359H4.73047C4.7513 5.43359 4.76172 5.44401 4.76172 5.46484V9.46484C4.76172 9.64453 4.81901 9.79818 4.93359 9.92578C5.04818 10.0508 5.1875 10.1133 5.35156 10.1133C5.52344 10.1133 5.66667 10.0508 5.78125 9.92578C5.89583 9.79818 5.95312 9.64453 5.95312 9.46484V5.46484C5.95312 5.44401 5.96354 5.43359 5.98438 5.43359H6.88281C6.90365 5.43359 6.91406 5.44401 6.91406 5.46484L6.92969 9.46484C6.92969 9.75911 6.85938 10.0299 6.71875 10.2773C6.57552 10.5221 6.38542 10.7174 6.14844 10.8633C5.91146 11.0065 5.64583 11.0781 5.35156 11.0781ZM8.91797 11.0781C8.63411 11.0781 8.3724 11.0052 8.13281 10.8594C7.89583 10.7135 7.70573 10.5195 7.5625 10.2773C7.42188 10.0326 7.35156 9.76432 7.35156 9.47266V9.10547C7.35156 9.07682 7.36458 9.0625 7.39062 9.0625H8.28906C8.3099 9.0625 8.32031 9.07682 8.32031 9.10547V9.47266C8.32031 9.64714 8.37891 9.79818 8.49609 9.92578C8.61328 10.0508 8.75391 10.1133 8.91797 10.1133C9.08464 10.1133 9.22656 10.0495 9.34375 9.92188C9.46094 9.79167 9.51953 9.64193 9.51953 9.47266C9.51953 9.27734 9.39193 9.10677 9.13672 8.96094C9.09505 8.9349 9.04036 8.90365 8.97266 8.86719C8.90755 8.82812 8.82943 8.78385 8.73828 8.73438C8.64714 8.6849 8.55859 8.63672 8.47266 8.58984C8.38672 8.54036 8.30339 8.49349 8.22266 8.44922C7.93099 8.27734 7.71354 8.0625 7.57031 7.80469C7.42969 7.54427 7.35938 7.2526 7.35938 6.92969C7.35938 6.63281 7.43229 6.36458 7.57812 6.125C7.72396 5.88802 7.91406 5.70052 8.14844 5.5625C8.38542 5.42188 8.64193 5.35156 8.91797 5.35156C9.20182 5.35156 9.46224 5.42188 9.69922 5.5625C9.9362 5.70573 10.125 5.89583 10.2656 6.13281C10.4089 6.36979 10.4805 6.63542 10.4805 6.92969V7.58594C10.4805 7.60677 10.4701 7.61719 10.4492 7.61719H9.55078C9.52995 7.61719 9.51953 7.60677 9.51953 7.58594L9.51172 6.92969C9.51172 6.74219 9.45312 6.58984 9.33594 6.47266C9.21875 6.35547 9.07943 6.29688 8.91797 6.29688C8.75391 6.29688 8.61328 6.35938 8.49609 6.48438C8.37891 6.60938 8.32031 6.75781 8.32031 6.92969C8.32031 7.10417 8.35677 7.25 8.42969 7.36719C8.50521 7.48438 8.64193 7.59635 8.83984 7.70312C8.86068 7.71354 8.90885 7.73958 8.98438 7.78125C9.0599 7.82292 9.14323 7.86979 9.23438 7.92188C9.32812 7.97135 9.41276 8.01693 9.48828 8.05859C9.5638 8.09766 9.60938 8.12109 9.625 8.12891C9.89062 8.27734 10.1003 8.45964 10.2539 8.67578C10.4102 8.89193 10.4883 9.15755 10.4883 9.47266C10.4883 9.77734 10.418 10.0508 10.2773 10.293C10.1341 10.5352 9.94401 10.7266 9.70703 10.8672C9.47005 11.0078 9.20703 11.0781 8.91797 11.0781ZM12.5078 11H11.0742C11.0534 11 11.043 10.987 11.043 10.9609L11.0586 5.46484C11.0586 5.44401 11.069 5.43359 11.0898 5.43359H12.6289C12.9284 5.43359 13.2005 5.50651 13.4453 5.65234C13.6849 5.79818 13.8737 5.99219 14.0117 6.23438C14.1497 6.47396 14.2188 6.73438 14.2188 7.01562C14.2188 7.24479 14.1667 7.45833 14.0625 7.65625C13.9583 7.85417 13.8346 8.01432 13.6914 8.13672C13.8451 8.29036 13.9648 8.46875 14.0508 8.67188C14.1367 8.875 14.1797 9.08854 14.1797 9.3125C14.1797 9.6224 14.1055 9.90495 13.957 10.1602C13.806 10.4154 13.6042 10.6198 13.3516 10.7734C13.099 10.9245 12.8177 11 12.5078 11ZM12.6289 6.38281H12.0195V7.64062H12.6289C12.8138 7.64062 12.9635 7.57552 13.0781 7.44531C13.1927 7.3125 13.25 7.16927 13.25 7.01562C13.25 6.84635 13.1888 6.69922 13.0664 6.57422C12.944 6.44661 12.7982 6.38281 12.6289 6.38281ZM12.5078 8.60938H12.0195L12.0117 10.0234H12.5078C12.7005 10.0234 12.8659 9.95312 13.0039 9.8125C13.1419 9.67188 13.2109 9.50521 13.2109 9.3125C13.2109 9.11979 13.1419 8.95443 13.0039 8.81641C12.8659 8.67839 12.7005 8.60938 12.5078 8.60938Z" fill="#FDFDFD"/>
</svg>
